<svg xmlns="http://www.w3.org/2000/svg" viewBox="0 0 1920 1080" xmlns:v="https://vecta.io/nano"><path d="M1368.3 0c-2.5 20.6-5.2 60 1.9 105.3 6 38.8 17.9 73.9 35.3 104.6-96-42.6-176.9-70.9-241.2-84.3l-31.9-6.6-.9 6.7-9.7-11.5-9.8-2.2c-2-.5-196.2-44.8-354.9-65.1-15.4-18.1-27.9-33.6-38-46.9H406.8c-11.2 16.2-24.1 41.3-44.6 82.4-46.8 94-83.6 194-109.4 297.5-32.2 129.2-47.1 264-44.4 400.6l.6 29.6h10.4l-11.7 16.4.4 10.3c.2 4.8 4.5 102.5 43.7 240.9l.7 2.3h491c.5-11.1 1.9-16.4 6-26.5 20.3-50.5 52.3-74 100.8-74 7.5 0 15.5.6 23.8 1.7 11.9 13.3 29.3 28.6 53.1 39.8l45.7 21.3-2.8-50.3c-1.4-25.6-8.8-47.1-16.6-63 10-28.3 30.1-70.4 67.5-99.7 33.1-25.9 75.9-40.1 120.5-40.1 48.7 0 97.6 17.3 142.1 50.3-.1 17.7 2.5 41.8 13.4 66.9l20.1 46.3 31.3-39.6c13.6-17.2 21.9-35.1 27-50.4 16.9-3.6 41.1-7.1 69.6-7.1 24.3 0 48.3 2.5 71.8 7.5-14.4 22.7-36 50.7-67.3 77.4l-53.5 45.7 69.9 7.3c1.5.2 137.2 15.3 236.7 86.7h94.7c38.8-27.9 83.1-47.2 122.8-60.3V41.6c-28.9 7.9-39.6 12.9-67.7 35.6-18.3-9.7-38.1-14.6-59.1-14.6H1763v30.2c0 7.2-5.9 13.1-13.1 13.1s-13.1-5.9-13.1-13.1V62.6h-30.2c-21 0-40.8 4.9-59.1 14.6-35.5-28.6-74.6-38.4-109.7-47.3-29.2-7.3-55-13.8-78.9-29.9" fill="#2e312c"/><g fill="#eabf00"><path d="M1826.1 140.5c.3.1.6.1 1 .2l1.6.3-2.6-.5c-.3-.1-.6-.1-.9-.2-.2 0-.5-.1-.7-.1l1.6.3m2.8.6c.6.1 1.2.3 1.8.5.2.1.5.1.7.2l2.6.7c-.1 0-.2-.1-.3-.1-.5-.1-1-.3-1.5-.4-.3-.1-.5-.1-.8-.2l-2.5-.7s-.1-.1 0 0c-.1-.1 0 0 0 0m14 4.4h0m11.9 5.1l-1.2-.6c.4.3.8.5 1.2.6m9.4 4.8c-.1 0-.1-.1-.2-.1.1.1.1.1.2.1m18.6 11c-.1 0-.1-.1-.2-.1 0 0 .1 0 .2.1m9.4 6.2s0 .1 0 0c.4.3.8.5 1.1.8l-1.1-.8c-.1 0 0 0 0 0m3.9 2.7c-.5-.3-.9-.7-1.5-1l1.5 1"/><path d="M1891.2 153.1l7.7-12.2-7.7 12.2z"/></g><path d="M1543 175.2s6.9-4.9 19.3-7.5c-8-7.5-33.7-28.3-82.3-37.2 16.3 16.9 39.4 36.8 63 44.7zm99.7 256.3c-22.7 12.9-42.2 26.2-58.8 38.9 1.9 3.1 3.9 6.1 5.9 9.2a399.46 399.46 0 0 0 12.4 17.8c10.1-35.1 40.5-65.9 40.5-65.9h0zM1619 318.4c2.4-3.9 5.3-7.4 8.5-10.8-10.4-6.4-14.9-21.3-13.3-30.2 2-11.4 10.4-18 10.4-18-5-5.4-20.9-8.9-20.9-8.9s5.9 4.8 8.8 8c0 .1-24 33.5 6.5 59.9z" fill="#292c2c"/><path d="M1603.7 250.6h0zm136.4 82.1h0z" fill="#b88800"/><path d="M1707.9 326.7c-.6.1-1.2.1-1.8.2 0 0-22.5 23.6-19.1 54.3 3.3-.4 6.5-.7 9.4-1 2.2-21.2 8.4-37 13.2-46.6 12.8-3.4 30.4-.9 30.4-.9.1 0-16.4-7.7-32.1-6zm-39.5 41c-19.3 1.7-62 8.6-95.9 36.2l5.8 7s-15.4 7.2-29.5 17.3c-1-6.9-1.6-13.8-1.9-20.2l16.8-55-32.1 52.2c-.6 13.8.4 26.6 1.7 36.6 1.7 12.4 3.8 20.4 3.8 20.4 22.3-20.5 75.6-44.4 75.6-44.4l-6.1-7.2c20-14.1 42-21.9 61.3-26.2-.2-4-.2-9.9.5-16.7zm251.6 66.5l-32.9-16.4 6.1-7.2c-20-14.1-42-21.9-61.3-26.2.2-4.1.2-9.9-.5-16.7 19.3 1.7 54.9 3.2 88.6 30.8m-10 81c2-3 3.9-6.1 5.9-9.2-16.6-12.7-36.1-26-58.8-38.9 0 0 30.5 30.7 40.5 65.8 4.2-5.6 8.4-11.5 12.4-17.7z" fill="#292c2c"/><path d="M1896.1 250.6h0z" fill="#b88800"/><path d="M1885.6 277.4c1.5 8.9-2.8 23.5-12.9 30 3.2 3.4 6 7 8.3 10.9 30.3-26.4 6.3-59.7 6.3-59.7 2.9-3.3 8.8-8 8.8-8s-15.9 3.5-20.9 8.9c0 0 8.4 6.5 10.4 17.9z" fill="#292c2c"/><path d="M1759.7 332.7h0z" fill="#b88800"/><g fill="#292c2c"><path d="M1793.7 326.9c-.6-.1-1.2-.1-1.8-.2-15.6-1.6-32.2 6.1-32.2 6.1s17.6-2.5 30.4.9c4.9 9.6 11.1 25.4 13.2 46.6 2.9.2 6.1.6 9.4 1 3.5-30.8-19-54.4-19-54.4zM293.1 855.4c7.7 80.6 24 154.3 46.3 224.6h17.5c-8.8-129.9 2.5-240.1 10.2-296.9-16-193.1-.7-403.9 75.8-612.3 0 0-131.6 208.6-157.9 565.5h59.2l-51.1 119.1zM589.9 1080c-52.8-51.1-100-108.5-135.5-137.2 4.3 45.8 9.9 89.6 18.1 137.2M1920 779.6v-70l-13.8-.8 6.1-5.3c3.9-3.5.7-.2 7.6-6.9v-76c-.4 1.1-.7 2.2-.7 2.2-5.1 15-11.4 26.4-16.6 34.5l-20.3-3s-13.3 50.1-60.5 77.5c0 0 30.6-65 35.2-113l22.2 3s4.3-22.3-1.3-44.7c-59.2 59.1-116.4 87.7-119.9 89.4l-8.2 4-.1-.1-8-3.9c-3.4-1.7-59.4-29.7-118-87.5-4.9 21.8-.9 42.8-.9 42.8l22.2-3c4.6 48 35.2 113 35.2 113-47.2-27.5-60.5-77.5-60.5-77.5l-20.3 3s-33.9-43.3-29.1-140.5c-5.3-7.3-10.4-14.8-15.4-22.6-28.3 25.3-41.9 43.9-41.9 43.9-6.1-12.3-10.7-26.2-14.2-40.4-46.5-25.6-170.9-91.5-283.6-128.2l-15.4-4.8c6.2 23.1 17.9 51.5 31.6 82.5 85.4 32 134.5 72.3 134.5 72.3 20.9 86.9 56.5 131.8 56.5 131.8l-39.5 2.8c8.8 23.3 18.1 43.3 27.1 60.4 25.1-6.4 47.1-9.5 62.3-10.9-6.4-15.8-9.4-26.7-9.4-26.7l41-1.8c-34.8-54.3-48-128.2-48-128.2 59.5 102.3 137.8 166.4 137.8 166.4l-52.6 3.1c60.4 129.2 168.7 200.4 168.7 200.4s-59.2-13.6-101.5-46.5c-13.8 34.3-41.7 68.2-41.7 68.2 103.5 23.1 180.1 70.7 183.3 72.6l.1.1c.3-.2 64.5-39.9 170.1-69.6v-21c-3.5-6.9-14.9-23.3-29.8-53.9-42.2 32.1-100.1 45.5-100.1 45.5s19.8-13 47.2-38c35.7-32.6 62.8-65.6 82.6-94.6"/><path d="M1081.3 385.5c-25.8-24-48.1-49.1-62.9-66.5C913.3 289.2 808 236.3 662.7 57.6c-1 21.1-1 52.8 2.7 95.5 90.1 149.7 250.4 246.2 373 301.9 27.2 24.1 63.6 58.5 101.4 100.9-62.7 37.2-200.3 133.6-265 294.3l5.5 12.3c99.1-173.7 292.8-246.2 364-267.7-44.7-80.9-104.9-155.2-163-209.3zM711.2 755c-26.4 52.2-84.9 184.8-75.8 319.3 3.4 3.5 2.3 2.5 5.5 5.7h16.6c6.8-162.4 99.4-268.3 133.9-304-91.2-167.3-219.9-445.1-227.9-693.4 0 0-106.8 255.2-117 621.3 4.1 16.5 8.4 32.3 12.9 47.6 10.1-116.4 43.4-225.9 78.5-313.4 29.2 76 82.8 191.8 173.3 316.9zm1110.9-252.2c9.6-9.2 16.7-18.1 20.6-23.3l3.3-4.6c-3.1-3.8-6.9-7.9-11.2-12.1-8.7 12.5-23.5 16.7-23.5 16.7h0c4.4-6.3 7.3-20.1 8.9-29.2-8.4-6.5-18.1-12.4-28.6-17.1-4.2 23.1-23.9 38.6-23.9 38.6 1.7-18.9-1.6-37.7-3.6-46.8-4.6-.7-9.4-1.1-14.2-1.1s-9.5.4-14.2 1.1c-2 9.2-5.3 28-3.6 46.8 0 0-19.7-15.4-23.9-38.6-10.5 4.7-20.1 10.7-28.6 17.1 1.6 9.1 4.5 22.9 8.9 29.2h0s-14.8-4.2-23.5-16.7c-4.3 4.2-8.1 8.3-11.2 12.1l3.3 4.6c3.9 5.2 11 14.1 20.6 23.3 12.7-10.7 38.9-28.3 72.2-28.3s59.4 17.7 72.2 28.3z"/></g><path d="M1483.4 338.8C1344 268 1185.8 209.5 1185.8 209.5l-4.8 23.1c101.3 34.6 266.2 111.9 296.1 126 1.9-6.8 3.9-13.4 6.3-19.8zm-391.1-151.7c-97.2-26.7-243.4-50.7-299.9-59.5 11.2 10.5 23.2 21 35.7 31.4 148.5 24.4 259.3 49.5 293.6 57.6l-29.4-29.5zm827.7-73.2c-20.5 7.3-22.9 10.8-39.2 28.7 4.6 6.4 8.4 12.6 11.3 18 8.6-9.2 18-16.5 27.8-22.5m-312.3 22.5c3-5.4 6.7-11.6 11.3-18-26.8-29.5-59.7-37.8-97.6-47.3-27.8-7-58.5-14.7-88.6-32.2.4 7.3 1.1 15.6 2.3 24.5 49.5 29.1 123.5 20.3 172.6 73z" fill="#303845"/><path d="M1900.7 178.7h0zm-301.6 0h0z" fill="#fff"/><path d="M1815.4 139.3c-14.6 20.4-38.5 33.8-65.5 33.8h0c-27 0-50.9-13.4-65.5-33.8-33.6 0-85.4 39.4-85.4 39.4s35.5-17 74.6-17c17 20.4 44.8 33.8 76.2 33.8h0c31.4 0 59.2-13.4 76.2-33.8 39.1 0 74.6 17 74.6 17 .1 0-51.6-39.4-85.2-39.4z" fill="#303845"/><g fill="#192231"><path d="M1769.5 363.9s9.5 7 22.9.6c0 0-8.8-22.2-26.8-19.5.1-.1 6.6 8.8 3.9 18.9zm117.8-29.4c-1.2-5.9-3.4-11.2-6.3-16.2-2.3-3.9-5.1-7.5-8.3-10.9 10.1-6.5 14.5-21.1 12.9-30-2-11.4-10.4-18-10.4-18 5-5.4 20.9-8.9 20.9-8.9h0c-37.1-16.3-66.6 11.2-76.6 15.5-10.1 4.3-26.2-6.2-26.2-6.2s1.5 11.6 7.6 16.6a3.04 3.04 0 0 0 .7.5c-5.2-.1-9.8.3-13.4 1.4 30 6.3 70.9 27.2 99.1 56.2zm-311.8-168.3c-4.9.1-9.3.7-13.2 1.5-12.4 2.6-19.3 7.5-19.3 7.5-23.6-7.8-46.6-27.8-63-44.7-14.4-14.9-23.7-27.5-23.7-27.5 10.7 77.7 77.5 114.8 77.5 114.8 10.3-29.4 41.7-51.6 41.7-51.6zm158.6 178.7c-18-2.7-26.8 19.5-26.8 19.5 13.4 6.4 22.9-.6 22.9-.6-2.6-10 3.9-18.9 3.9-18.9zm-119.9-67.5c-1.6 9 3 23.9 13.3 30.2-3.3 3.3-6.1 6.9-8.5 10.8a48.27 48.27 0 0 0-6.5 16.1c28.2-29 73.7-49.9 103.7-56.1-4.6-1.3-11-1.7-18.4-1.1.4-.3.8-.5 1.1-.8 6.2-5 12.3-16.6 12.3-16.6s-20.8 10.4-30.9 6.2c-10.1-4.3-39.5-31.7-76.6-15.5h0s15.9 3.5 20.9 8.9c0 0-8.4 6.5-10.4 17.9zm10.9 193.8s2 3.2 5.7 8.4c6.8 9.5 19.8 25.9 38.2 42.3l-5.7 4.8s24.7 38.7 86.5 67.4c0 0 .1 0 .1.1 61.9-28.6 86.6-67.4 86.6-67.4l-5.7-4.8c18.4-16.4 31.3-32.8 38.2-42.3 3.7-5.2 5.7-8.4 5.7-8.4-19.4-25.8-68.2-70.2-124.8-70.2s-105.3 44.2-124.8 70.1zm39.9-8.3c8.7 12.5 23.5 16.7 23.5 16.7h0c-4.4-6.3-7.3-20.1-8.9-29.2 8.4-6.5 18.1-12.4 28.6-17.1 4.2 23.1 23.9 38.6 23.9 38.6-1.7-18.9 1.6-37.7 3.6-46.8 4.6-.7 9.4-1.1 14.2-1.1s9.5.4 14.2 1.1c2 9.2 5.3 28 3.6 46.8 0 0 19.7-15.4 23.9-38.6 10.5 4.7 20.1 10.7 28.6 17.1-1.6 9.1-4.5 22.9-8.9 29.2h0s14.8-4.2 23.5-16.7c4.3 4.2 8.1 8.3 11.2 12.1l-3.3 4.6c-3.9 5.2-11 14.1-20.6 23.3-5.4 5.2-11.6 10.6-18.4 15.4l7.5 6.6s-19.6 26.5-61.3 47.2c0 0-.1 0-.1-.1-41.5-20.7-61.1-47.1-61.1-47.1l7.5-6.6c-6.8-4.8-13-10.1-18.4-15.4-9.5-9.2-16.7-18.1-20.6-23.3l-3.3-4.6c3.1-3.9 6.8-8 11.1-12.1zm84.8 80.3l.1.1c29.9-20.1 31.7-45.9 31.7-45.9s-8-11-31.7-11h-.1c-23.6 0-31.6 11-31.6 11s1.8 25.7 31.6 45.8zM1920 920.7c-9.7-13.9-22.3-34-29.8-53.9-42.2 32.1-100.1 45.5-100.1 45.5s70.8-46.6 129.9-132.7v-70l-13.8-.8s5.1-4.2 13.8-12.2"/><path d="M1920 213l-4.1-2.8 4.1 6.8m0 724.7c-98.6 24.5-169.8 69.4-170.1 69.6 0 0-.1 0-.1-.1-3.1-1.9-79.8-49.5-183.3-72.6 0 0 27.9-33.9 41.7-68.2 42.3 32.9 101.5 46.5 101.5 46.5s-108.3-71.2-168.7-200.4l52.6-3.1s-78.2-64.1-137.8-166.4c0 0 13.2 73.9 48 128.2l-41 1.8s3.1 10.8 9.4 26.7c-15.1 1.4-37.1 4.5-62.3 10.9-23.3 5.9-49.3 14.8-75.1 28-6.2-32.4-16-74.3-31.4-122.8-17.5-55.1-47.9-117.8-72-172.5-13.7-31-25.4-59.5-31.6-82.5 5.1 1.5 10.2 3.1 15.4 4.8 112.8 36.7 237.2 102.6 283.6 128.2 3.5 14.2 8.1 28.1 14.2 40.4 0 0 13.7-18.6 41.9-43.9 5 7.8 10.1 15.3 15.4 22.6-4.8 97.1 29.1 140.5 29.1 140.5l20.3-3s13.3 50.1 60.5 77.5c0 0-30.6-65-35.2-113l-22.2 3s-4-21 .9-42.8c58.5 57.8 114.5 85.8 118 87.5l8 3.9.1.1 8.2-4c3.5-1.7 60.7-30.3 119.9-89.4 5.6 22.4 1.3 44.7 1.3 44.7l-22.2-3c-4.6 48-35.2 113-35.2 113 47.2-27.5 60.5-77.5 60.5-77.5l20.3 3s9.2-11.7 17.3-36.7V434.2c-22.7-13.4-32.9-16.4-32.9-16.4l6.1-7.2c-20-14.1-42-21.9-61.3-26.2.2-4.1.2-9.9-.5-16.7-.2-2-.5-4.1-.9-6.3-.1-.4-.1-.8-.2-1.3-.2-.9-.3-1.8-.5-2.7-.1-.7-.3-1.4-.5-2.1l-.6-2.5-1.2-4.3c-.2-.6-.4-1.2-.6-1.7l-1.2-3.3c-.2-.6-.5-1.3-.8-1.9-.5-1.2-1-2.3-1.6-3.5-.2-.5-.5-1-.7-1.5-.8-1.6-1.7-3.2-2.6-4.8-.2-.4-.5-.8-.8-1.2-.8-1.3-1.6-2.5-2.4-3.7-.3-.5-.7-1-1.1-1.5-1-1.4-2.1-2.7-3.2-4-.2-.2-.4-.5-.6-.7-1.3-1.5-2.8-3-4.3-4.5-.4-.4-.8-.8-1.3-1.2-1.2-1.1-2.5-2.2-3.8-3.3l-1.5-1.2c-1.8-1.4-3.7-2.7-5.7-4 0 0-4.5 1.4-10.4 4.1-9.1-3.5-21.6-6.9-35.1-6.9s-26 3.5-35.1 6.9c-5.9-2.7-10.4-4.1-10.4-4.1-2 1.3-3.9 2.6-5.7 4l-1.5 1.2-3.8 3.3c-.4.4-.8.8-1.3 1.2-1.5 1.5-3 3-4.3 4.5-.2.2-.4.5-.6.7-1.1 1.3-2.2 2.7-3.2 4-.4.5-.7 1-1.1 1.5-.9 1.2-1.7 2.5-2.5 3.7-.2.4-.5.8-.8 1.2-.9 1.6-1.8 3.2-2.6 4.8-.2.5-.5 1-.7 1.5-.5 1.2-1.1 2.3-1.6 3.5-.3.6-.5 1.3-.8 1.9l-1.2 3.3c-.2.6-.4 1.2-.6 1.7-.5 1.4-.9 2.9-1.2 4.3l-.6 2.5c-.2.7-.3 1.4-.5 2.1-.2.9-.4 1.8-.5 2.7-.1.4-.1.9-.2 1.3-.4 2.2-.7 4.3-.9 6.3h0c-.7 6.8-.7 12.7-.5 16.7-19.3 4.3-41.3 12-61.3 26.2l6.1 7.2s-53.2 23.9-75.6 44.4c0 0 0-.1-.1-.4v-.1c-.1-.2-.1-.6-.2-1v-.2c-.1-.4-.2-.9-.4-1.5v-.2c-.1-.6-.3-1.3-.5-2.1 0-.1 0-.2-.1-.3-.2-.8-.3-1.7-.5-2.6 0-.1 0-.2-.1-.4-.2-.9-.4-2-.6-3.1 0-.1 0-.3-.1-.4l-.6-3.5c0-.1 0-.3-.1-.4l-.6-4.3c-.1-.9-.2-1.9-.4-2.8-.1-.5-.1-.9-.2-1.3l-.3-2.6c-.1-.6-.1-1.3-.2-1.9-.1-.8-.1-1.6-.2-2.5-.1-.8-.1-1.5-.2-2.3s-.1-1.6-.2-2.4c-.1-.9-.1-1.7-.1-2.6 0-.8-.1-1.5-.1-2.3 0-1-.1-2-.1-3v-7.5c0-1.8.1-3.6.2-5.5l32.2-52.2-33.9-9.9s6.1-55.1 54.1-132.9c0 0-21.6 13.6-46.1 40.3-72.6-42.8-95.8-113.1-102.7-163-1.2-8.9-2-17.2-2.3-24.5 30.1 17.5 60.7 25.2 88.6 32.2 37.8 9.5 70.7 17.8 97.6 47.3-4.6 6.4-8.4 12.6-11.3 18-5.8 10.6-8.6 18.2-8.6 18.2h0s51.8-39.4 85.4-39.4c14.6 20.4 38.5 33.8 65.5 33.8h0c27 0 50.9-13.4 65.5-33.8 33.6 0 85.4 39.4 85.4 39.4h0s-2.7-7.6-8.6-18.2c-3-5.4-6.7-11.6-11.3-18 11.9-13.1 25-22 39.2-28.7v-40c-22.8 8.5-44.8 20.7-64.6 41.7-16-12.9-36.5-22.6-62.3-22.6 0 23.8-19.4 43.2-43.2 43.2s-43.2-19.4-43.2-43.2c-25.7 0-46.3 9.7-62.3 22.6-33.9-36-74.5-46.2-113.9-56.1-36.5-9.2-70.9-17.8-103.6-45.8L1411.2 0h-12.4c-5.3 40.3-17.1 199.8 115.6 279.8-2.5 3.6-5 7.4-7.4 11.3-113.9-56.6-246.6-114.7-348.7-135.9l-5.5 42-47.3-55.8S903.1 95 742.1 75.4C718.8 49.1 699.5 23.6 683.6 0H441.8c-92.4 152.9-210.4 420-203.3 779.9H278l-39.8 55.7s3.6 100.9 45.7 244.4h55.4c-22.3-70.3-38.5-144.1-46.3-224.6l51.1-119h-59.2c26.3-357 157.9-565.5 157.9-565.5C366.3 379.2 350.9 590 367 783.1c8.8 106.5 26.5 204.6 49.4 296.9h56.1c-8.1-47.6-13.7-91.4-18.1-137.2 35.6 28.7 82.7 86.1 135.5 137.2h51c-3.2-3.1-2.2-2.2-5.5-5.7-52.8-55-126.9-156.2-175.9-322.9-4.5-15.3-8.8-31.1-12.9-47.6 10.1-366.1 117-621.3 117-621.3 7.9 248.3 136.6 526.1 227.8 693.4-34.5 35.6-127.1 141.5-133.9 304h55.7c.6-14.5 2.7-24 8.3-37.7 21.7-53.9 65.7-108.1 168.6-89.1 9.1 11.8 25.3 28.9 49.9 40.4-1.5-27.4-11.6-49-19.2-61.7 9.9-32.7 32.8-88.2 81.6-126.4 71.3-55.7 196.1-75 312.2 19.8-1.6 14-2.2 40.6 10.1 69 16.2-20.5 23.2-42.2 26.2-56.8 33.6-9.3 115.4-24.9 210.9 6.5-11.4 24.3-39.2 73.9-92.6 119.5 0 0 172.4 18 280.9 116.1h0c50.8-45.9 115.5-74.2 170.1-91.4v-46.4zm-301.5-495.6c7.6-4.9 15.7-9.8 24.2-14.6h0l-5-6.9c19.2-18.4 49.8-34.1 82-44.9h-.5c-.3 0-.7 0-1.2-.1-2.7-.1-8.5-.2-16.5.2h-.1c-1.6.1-3.2.2-5 .4h0c-1.3.1-2.7.2-4.1.4-.3 0-.6.1-.8.1-1.5.2-3 .3-4.5.5-3.4-30.7 19.1-54.3 19.1-54.3.6-.1 1.2-.1 1.8-.2 15.6-1.6 32.2 6.1 32.2 6.1-.8-2-1.8-3.8-3.1-5.6s-2.8-3.4-4.4-4.9c5.3-1.3 11.2-2.2 17.3-2.2s11.9.9 17.3 2.2c-.8.8-1.6 1.6-2.3 2.4-2.2 2.5-4 5.2-5.1 8.1 0 0 16.5-7.7 32.2-6.1.6.1 1.2.1 1.8.2 0 0 22.5 23.6 19.1 54.3-1.5-.2-3-.4-4.5-.5-.3 0-.6-.1-.8-.1-1.4-.1-2.8-.3-4.1-.4h0c-1.7-.1-3.4-.3-5-.4h-.1c-7.9-.5-13.8-.3-16.5-.2-.5 0-.9 0-1.2.1h-.5c32.2 10.8 62.9 26.5 82 44.9l-5 6.9c22.7 12.9 42.2 26.2 58.8 38.9-1.9 3.1-3.9 6.1-5.9 9.2l-6.1 8.9c-.1.2-.2.3-.4.5l-6 8.4c-37.7 51.3-82.1 87.7-113.8 109.8-.2.1-.3.2-.5.3-1.2.8-2.4 1.7-3.6 2.4l-.9.6-3.2 2.1c-.4.2-.7.5-1.1.7-1 .6-1.9 1.3-2.8 1.9-.4.3-.8.5-1.2.8-.9.6-1.7 1.1-2.5 1.6a9.13 9.13 0 0 1-1.3.8c-.8.5-1.5 1-2.3 1.4-.5.3-.9.6-1.4.9-.7.4-1.3.8-2 1.2l-1.5.9c-.6.4-1.2.7-1.7 1l-3 1.8c-.5.3-1.1.6-1.6.9-.4.2-.8.4-1.1.7-.8.5-1.7.9-2.4 1.4 0 0-.1 0-.1-.1-.8-.4-1.6-.9-2.4-1.4-.3-.2-.7-.4-1-.6-.6-.3-1.1-.6-1.7-1-.4-.3-.9-.5-1.4-.8l-1.5-.9c-.6-.3-1.1-.7-1.7-1l-1.5-.9c-.6-.4-1.3-.8-2-1.2-.5-.3-.9-.6-1.4-.9-.7-.5-1.5-.9-2.2-1.4-.5-.3-.9-.6-1.4-.9-.8-.5-1.6-1.1-2.5-1.6-.4-.3-.8-.5-1.3-.8-.9-.6-1.9-1.2-2.8-1.8-.4-.2-.7-.5-1.1-.7l-3.1-2.1-.9-.6c-1.2-.8-2.4-1.6-3.6-2.5-.1-.1-.3-.2-.4-.3-31.7-22.1-76-58.5-113.7-109.7l-6-8.3c-.1-.2-.3-.4-.4-.5l-6.1-8.9c-2-3-3.9-6.1-5.9-9.2 10.7-8 22.2-16.2 34.9-24.4zm-526.2-259l29.5 29.5 51.8 52 7.4-35.9 4.8-23.1s158.3 58.4 297.6 129.2a272.92 272.92 0 0 0-6.3 19.9c-.3 1.3-.7 2.5-1.1 3.8l33.6 7.7-21.5 25.8s-.5 21 2.1 48.8c-43.8-23.8-135.9-71.2-248.7-113-95.6-35.5-210.7-42.8-308.8-99.8-39.2-22.8-73.9-47.6-104.6-73-12.5-10.4-24.5-20.9-35.7-31.4 56.4 8.8 202.6 32.8 299.9 59.5zM880.5 862.4l-5.5-12.3C721.4 509.4 676.6 281.3 665.5 153c-3.7-42.7-3.7-74.4-2.7-95.5 145.3 178.6 250.6 231.6 355.7 261.4 14.7 17.4 37.1 42.5 62.9 66.5 58.1 54.1 118.3 128.4 163.2 209.2-71.3 21.6-265 94.1-364.1 267.8z"/></g><g fill="#303845"><circle cx="1846.2" cy="277.9" r="9.8"/><circle cx="1652.8" cy="277.9" r="9.8"/></g></svg>