<svg xmlns="http://www.w3.org/2000/svg" width="22" height="22" viewBox="0 0 22 22" version="1.1"><path d="M 11.390 2.737 C 13.530 2.957, 15.921 3.778, 16.704 4.561 C 17.487 5.344, 17.847 6.438, 17.505 6.992 C 17.162 7.547, 15.982 8, 14.882 8 C 13.782 8, 13.160 7.550, 13.500 7 C 13.848 6.437, 13.043 6, 11.657 6 C 9.795 6, 8.928 6.767, 8.098 9.149 C 7.494 10.881, 7 12.681, 7 13.149 C 7 13.617, 7.873 14, 8.941 14 C 10.009 14, 11.203 13.480, 11.595 12.845 C 12.057 12.099, 11.868 11.964, 11.058 12.464 C 10.195 12.998, 9.921 12.659, 10.174 11.368 C 10.465 9.878, 11.441 9.500, 14.994 9.500 C 18.191 9.500, 19.536 9.068, 19.755 7.971 C 19.924 7.131, 19.130 5.443, 17.992 4.221 C 16.417 2.532, 14.914 2.040, 11.711 2.168 L 7.500 2.336 11.390 2.737 M 5.813 4.683 C 6.534 4.972, 7.397 4.936, 7.729 4.604 C 8.061 4.272, 7.471 4.036, 6.417 4.079 C 5.252 4.127, 5.015 4.364, 5.813 4.683 M 15 13.465 C 15 14.270, 14.130 15.395, 13.066 15.965 C 12.002 16.534, 9.617 17, 7.766 17 C 5.915 17, 3.833 16.438, 3.141 15.750 C 2.131 14.748, 2.016 14.852, 2.558 16.278 C 2.931 17.256, 4.053 18.493, 5.052 19.028 C 6.051 19.563, 7.933 20, 9.235 20 C 10.536 20, 12.793 19.438, 14.249 18.750 C 15.706 18.063, 17.124 16.635, 17.400 15.577 C 17.677 14.519, 17.674 13.281, 17.393 12.826 C 17.112 12.372, 16.459 12, 15.941 12 C 15.423 12, 15 12.659, 15 13.465" stroke="none" fill="#040404" fill-rule="evenodd"/><path d="M 8 4 C 8 4.550, 7.411 5, 6.691 5 C 5.971 5, 4.674 7.213, 3.809 9.918 C 2.681 13.445, 2.542 15.142, 3.318 15.918 C 3.913 16.513, 5.915 17, 7.766 17 C 9.617 17, 12.002 16.534, 13.066 15.965 C 14.130 15.395, 15 14.270, 15 13.465 C 15 12.659, 14.352 12, 13.559 12 C 12.766 12, 11.840 12.450, 11.500 13 C 11.160 13.550, 10.009 14, 8.941 14 C 7.873 14, 7 13.617, 7 13.149 C 7 12.681, 7.494 10.881, 8.098 9.149 C 8.928 6.767, 9.795 6, 11.657 6 C 13.043 6, 13.848 6.437, 13.500 7 C 13.160 7.550, 13.782 8, 14.882 8 C 15.982 8, 17.162 7.547, 17.505 6.992 C 17.847 6.438, 17.456 5.313, 16.635 4.492 C 15.814 3.672, 13.536 3, 11.571 3 C 9.607 3, 8 3.450, 8 4" stroke="none" fill="#94a951" fill-rule="evenodd"/></svg>