<?xml version="1.0" encoding="UTF-8" standalone="no"?>
<!DOCTYPE svg PUBLIC "-//W3C//DTD SVG 1.1//EN" "http://www.w3.org/Graphics/SVG/1.1/DTD/svg11.dtd">
<svg width="100%" height="100%" viewBox="0 0 512 512" version="1.1" xmlns="http://www.w3.org/2000/svg" xmlns:xlink="http://www.w3.org/1999/xlink" xml:space="preserve" xmlns:serif="http://www.serif.com/" style="fill-rule:evenodd;clip-rule:evenodd;stroke-linejoin:round;stroke-miterlimit:2;">
    <g transform="matrix(0.997624,-0.068897,0.068897,0.997624,-17.0293,18.2459)">
        <rect x="35.332" y="35.332" width="441.337" height="441.337" style="fill:rgb(0,66,8);"/>
    </g>
    <g transform="matrix(0.825843,0,0,0.825843,44.5843,44.5843)">
        <rect x="35.332" y="35.332" width="441.337" height="441.337" style="fill:white;"/>
    </g>
    <g transform="matrix(0.716428,0,0,0.716428,0.804673,80.4135)">
        <g transform="matrix(427.481,0,0,427.481,141.327,404.765)">
            <path d="M0.339,-0.742L0.251,-0.626C0.228,-0.645 0.17,-0.682 0.078,-0.737L0.161,-0.841C0.252,-0.794 0.311,-0.761 0.339,-0.742ZM0.295,-0.471L0.214,-0.351C0.194,-0.364 0.132,-0.4 0.025,-0.459L0.102,-0.566C0.208,-0.516 0.273,-0.484 0.295,-0.471ZM0.183,0.082L0.061,-0.014C0.132,-0.113 0.195,-0.217 0.251,-0.326L0.357,-0.231C0.309,-0.134 0.25,-0.03 0.183,0.082ZM0.769,-0.202L0.534,-0.202L0.534,-0.078L0.769,-0.078L0.769,-0.202ZM0.37,-0.811L0.939,-0.811C0.939,-0.786 0.939,-0.769 0.938,-0.758C0.935,-0.645 0.93,-0.563 0.924,-0.512C0.917,-0.461 0.907,-0.427 0.894,-0.41C0.873,-0.385 0.843,-0.369 0.804,-0.364C0.776,-0.36 0.731,-0.358 0.669,-0.359C0.666,-0.41 0.651,-0.454 0.626,-0.492C0.662,-0.489 0.699,-0.487 0.735,-0.487C0.752,-0.487 0.764,-0.491 0.771,-0.499C0.783,-0.513 0.79,-0.573 0.794,-0.677L0.647,-0.677C0.642,-0.637 0.634,-0.602 0.624,-0.571C0.613,-0.541 0.599,-0.51 0.581,-0.48C0.563,-0.45 0.538,-0.422 0.507,-0.398C0.476,-0.374 0.439,-0.352 0.396,-0.333L0.916,-0.333L0.916,0.09L0.769,0.09L0.769,0.053L0.534,0.053L0.534,0.094L0.394,0.094L0.394,-0.332L0.384,-0.328C0.376,-0.346 0.364,-0.367 0.347,-0.389C0.331,-0.412 0.315,-0.429 0.3,-0.442C0.368,-0.467 0.416,-0.499 0.444,-0.537C0.473,-0.575 0.492,-0.621 0.5,-0.677L0.37,-0.677L0.37,-0.811Z" style="fill:rgb(0,66,8);fill-rule:nonzero;"/>
        </g>
    </g>
</svg>
