<svg id="Layer_1" data-name="Layer 1" xmlns="http://www.w3.org/2000/svg" xmlns:xlink="http://www.w3.org/1999/xlink" viewBox="0 0 141.36 137.43">
    <defs>
        <style>.cls-1{fill:none;}.cls-2{clip-path:url(#clip-path);}</style>
        <clipPath id="clip-path"><rect class="cls-1" x="36.42" y="44.23" width="68.52" height="48.96"/></clipPath>
    </defs>
    <title>discord</title>
    <g class="cls-2">
        <path d="M81.23,78.48a6.14,6.14,0,1,1,6.14-6.14,6.14,6.14,0,0,1-6.14,6.14M60,78.48a6.14,6.14,0,1,1,6.14-6.14A6.14,6.14,0,0,1,60,78.48M104.41,73c-.92-7.7-8.24-22.9-8.24-22.9A43,43,0,0,0,88,45.59a17.88,17.88,0,0,0-8.38-1.27l-.13,1.06a23.52,23.52,0,0,1,5.8,1.95,87.59,87.59,0,0,1,8.17,4.87s-10.32-5.63-22.27-5.63a51.32,51.32,0,0,0-23.2,5.63,87.84,87.84,0,0,1,8.17-4.87,23.57,23.57,0,0,1,5.8-1.95l-.13-1.06a17.88,17.88,0,0,0-8.38,1.27,42.84,42.84,0,0,0-8.21,4.56S37.87,65.35,37,73s-.37,11.54-.37,11.54,4.22,5.68,9.9,7.14,7.7,1.47,7.7,1.47l3.75-4.68a21.22,21.22,0,0,1-4.65-2A24.47,24.47,0,0,1,47.93,82S61.16,88.4,70.68,88.4c10,0,22.75-6.44,22.75-6.44a24.56,24.56,0,0,1-5.35,4.56,21.22,21.22,0,0,1-4.65,2l3.75,4.68s2,0,7.7-1.47,9.89-7.14,9.89-7.14.55-3.85-.37-11.54"/>
    </g>
</svg>