<svg id="Layer_1" data-name="Layer 1" xmlns="http://www.w3.org/2000/svg" xmlns:xlink="http://www.w3.org/1999/xlink" viewBox="0 0 141.36 137.43">
    <defs>
        <style>.cls-1{fill:none;}.cls-2{clip-path:url(#clip-path);}</style>
        <clipPath id="clip-path"><rect class="cls-1" x="29.3" y="52.62" width="82.77" height="34.15"/></clipPath>
    </defs>
    <title>link</title>
    <g class="cls-2">
        <path d="M75.37,65.51a3.85,3.85,0,0,0-1.73.42,8.22,8.22,0,0,1,.94,3.76A8.36,8.36,0,0,1,66.23,78H46.37a8.35,8.35,0,1,1,0-16.7h9.18a21.51,21.51,0,0,1,6.65-8.72H46.37a17.07,17.07,0,1,0,0,34.15H66.23A17,17,0,0,0,82.77,65.51Z"/>
        <path d="M66,73.88a3.85,3.85,0,0,0,1.73-.42,8.22,8.22,0,0,1-.94-3.76,8.36,8.36,0,0,1,8.35-8.35H95A8.35,8.35,0,1,1,95,78H85.8a21.51,21.51,0,0,1-6.65,8.72H95a17.07,17.07,0,0,0,0-34.15H75.13A17,17,0,0,0,58.59,73.88Z"/>
    </g>
</svg>