<svg id="Layer_1" data-name="Layer 1" xmlns="http://www.w3.org/2000/svg" xmlns:xlink="http://www.w3.org/1999/xlink" viewBox="0 0 141.36 137.43">
    <defs>
        <style>.cls-1{fill:none;}.cls-2{clip-path:url(#clip-path);}.cls-3{fill:#231f20;}</style>
        <clipPath id="clip-path">
            <rect class="cls-1" x="44.02" y="34.21" width="51.96" height="68.48"/>
        </clipPath>
    </defs>
    <title>Lock</title>
    <g class="cls-2">
        <path class="cls-3" d="M86.16,54a16.38,16.38,0,1,0-32,0H44V102.7H96V54Zm-25.9-3.39a9.89,9.89,0,1,1,19.77,0A9.78,9.78,0,0,1,79.39,54H60.89A9.78,9.78,0,0,1,60.26,50.59ZM70,96.2a6.5,6.5,0,0,1-6.5-6.5,6.39,6.39,0,0,1,3.1-5.4V67h6.5V84.11a6.42,6.42,0,0,1,3.39,5.6A6.5,6.5,0,0,1,70,96.2Z"/>
    </g>
</svg>