<svg id="Layer_1" data-name="Layer 1" xmlns="http://www.w3.org/2000/svg" xmlns:xlink="http://www.w3.org/1999/xlink" viewBox="0 0 141.36 137.43">
    <defs>
        <style>.cls-1{fill:none;}.cls-2{clip-path:url(#clip-path);}</style>
        <clipPath id="clip-path"><rect class="cls-1" x="45.65" y="42.62" width="49.58" height="52.43"/></clipPath>
    </defs>
    <title>settings</title>
    <g class="cls-2">
        <path d="M70.44,75a6.19,6.19,0,1,1,5.84-6.18A6,6,0,0,1,70.44,75M91.67,63.71h-5A18.4,18.4,0,0,0,85.19,60l3.48-3.68a3.93,3.93,0,0,0,0-5.32l-1.4-1.48a3.43,3.43,0,0,0-5,0l-3.48,3.68A16.34,16.34,0,0,0,75,51.59V46.38a3.68,3.68,0,0,0-3.56-3.76h-2a3.68,3.68,0,0,0-3.56,3.76v5.21a16.23,16.23,0,0,0-3.77,1.64l-3.48-3.68a3.43,3.43,0,0,0-5,0L52.21,51a3.93,3.93,0,0,0,0,5.32L55.69,60a18.21,18.21,0,0,0-1.48,3.67h-5a3.67,3.67,0,0,0-3.56,3.76v2.1a3.68,3.68,0,0,0,3.56,3.76h4.84a18.46,18.46,0,0,0,1.64,4.3l-3.48,3.68a3.93,3.93,0,0,0,0,5.32l1.4,1.48a3.43,3.43,0,0,0,5,0l3.48-3.68a16.36,16.36,0,0,0,3.77,1.64v5.21a3.67,3.67,0,0,0,3.56,3.76h2A3.67,3.67,0,0,0,75,91.29V86.08a16.48,16.48,0,0,0,3.77-1.64l3.48,3.68a3.43,3.43,0,0,0,5,0l1.4-1.48a3.93,3.93,0,0,0,0-5.32l-3.48-3.68a18.45,18.45,0,0,0,1.63-4.3h4.85a3.68,3.68,0,0,0,3.56-3.76v-2.1a3.67,3.67,0,0,0-3.56-3.76"/>
    </g>
</svg>