<svg xmlns="http://www.w3.org/2000/svg" viewBox="0 0 72.54 78.82"><defs><style>.cls-1{fill:#0d1129;}.cls-2{fill:#fff;}.cls-3{fill:#03ddff;}</style></defs><g id="Layer_2" data-name="Layer 2"><g id="Layer_1-2" data-name="Layer 1"><path class="cls-1" d="M35.72,78.32a4.73,4.73,0,0,1-2.2-.56L3,62A4.6,4.6,0,0,1,.5,57.82V21.53A4.61,4.61,0,0,1,3,17.37L33.46,1.05A4.77,4.77,0,0,1,35.65.5a4.83,4.83,0,0,1,2.22.55L69.49,17.43A4.54,4.54,0,0,1,72,21.59V57.76A4.64,4.64,0,0,1,69.43,62L37.81,77.82A4.82,4.82,0,0,1,35.72,78.32Z"/><path class="cls-2" d="M35.65,1a4.43,4.43,0,0,1,2,.49L69.26,17.87a4.06,4.06,0,0,1,2.28,3.72V57.76a4.16,4.16,0,0,1-2.34,3.78L37.59,77.37a4.08,4.08,0,0,1-3.84-.06L3.22,61.54A4.11,4.11,0,0,1,1,57.82V21.53a4.13,4.13,0,0,1,2.22-3.72L33.69,1.49a4.19,4.19,0,0,1,2-.49m0-1a5.08,5.08,0,0,0-2.42.61L2.75,16.93A5.1,5.1,0,0,0,0,21.53V57.82a5.09,5.09,0,0,0,2.76,4.6L33.29,78.2a5.19,5.19,0,0,0,2.43.62,5.3,5.3,0,0,0,2.3-.54L69.65,62.43a5.12,5.12,0,0,0,2.89-4.67V21.59A5,5,0,0,0,69.71,17L38.11.61A5.39,5.39,0,0,0,35.65,0Z"/><polygon class="cls-3" points="51.63 20.51 58.83 17.45 59.01 17.57 59.01 32.63 51.63 32.15 51.63 20.51"/><polygon class="cls-3" points="51.63 59.74 58.83 61.9 59.01 61.36 59.01 44.74 51.63 45.28 51.63 59.74"/><path class="cls-3" d="M30.33,68.74l1.56-2.34.66.6-1.62,2.34Zm1.86-2-.3-.29a.4.4,0,0,1,.6-.06c.18.12.18.42.06.66Zm-.36,0,.6-28.24h.84l-.66,28.24Zm1-28.24h-.42a.42.42,0,1,1,.84,0Zm-.42,0L31.71,9.11h.84l.72,29.34Zm-.3-29.34h-.42a.46.46,0,0,1,.42-.48.43.43,0,0,1,.42.48Zm-.3-.36a5.11,5.11,0,0,1,3.24-1.62l.06,1a4.15,4.15,0,0,0-2.7,1.32Zm3.24-1.62a7.43,7.43,0,0,1,4,.72l-.3.84a7.15,7.15,0,0,0-3.6-.6Zm4,.72,3.54,1.68-.3.9L38.73,8.69Zm3.54,1.68L51.81,14l-.36.9-9.18-4.44Zm9.06,4.86.18-.42a.47.47,0,0,1,.18.6.43.43,0,0,1-.54.3Zm.42,0V32.2h-.84V14.39ZM51.63,32.2h.42a.42.42,0,1,1-.84,0Zm0-.48,7.31.48v1l-7.31-.49Zm7.31,1V32.2a.46.46,0,0,1,.43.48.48.48,0,0,1-.43.49Zm-.41,0V17.87h.84V32.68Zm.41-14.81h-.41a.42.42,0,1,1,.84,0Zm.18-.42,8,3.9-.3.9-8.09-4ZM67,21.83l.18-.48a.67.67,0,0,1,.24.66c-.12.24-.36.36-.54.24Zm.42,0V57.7h-.84V21.83ZM67,57.7h.42a.42.42,0,1,1-.84,0Zm.3.36h0l-.6-.72h0ZM67,57.7l.3.36a.4.4,0,0,1-.6,0,.76.76,0,0,1,0-.72Zm.18.42-8.1,3.66-.29-.84,8.09-3.66Zm-8.22,3.24.12.42a.32.32,0,0,1-.47-.24.45.45,0,0,1,.18-.6Zm-.41,0V44.68h.84V61.36Zm.41-16.68h-.41a.42.42,0,1,1,.84,0Zm0,.48-7.31.54v-1l7.31-.54Zm-7.31.06v.48a.48.48,0,0,1,0-1Zm.42,0V64.66h-.84V45.22Zm-.42,19.44h.42a.42.42,0,1,1-.84,0Zm.18.42L39,71l-.3-.83,12.72-5.94ZM38.91,70.6,39,71c-.18.12-.42,0-.54-.24a.52.52,0,0,1,.24-.59ZM39,71a7.4,7.4,0,0,1-4.62.49l.12-1a6.9,6.9,0,0,0,4.2-.35Zm-4.62.49a7.23,7.23,0,0,1-4.08-2.1l.6-.73a6.19,6.19,0,0,0,3.6,1.86ZM30.63,69l-.3.36a.56.56,0,0,1,0-.73.42.42,0,0,1,.6,0Z"/><path class="cls-3" d="M6.1,57,27.87,68.67c6.54,3.48,13.32,4.68,13.32-5V48.64a11.07,11.07,0,0,0-1.74-6.12,8.68,8.68,0,0,0-3.36-3.12,9.16,9.16,0,0,0,3.36-3.12,10.55,10.55,0,0,0,1.68-6.11V15.71c0-9.6-6.06-9.42-11.76-6.48L6.1,21.35Z"/><path class="cls-3" d="M6.28,56.62,28.05,68.2l-.3.9L5.92,57.46ZM28.05,68.2c2.76,1.5,5.52,2.52,7.8,2.52v1c-2.4,0-5.28-1.08-8.1-2.58Zm7.8,2.52a4.36,4.36,0,0,0,2.34-.54l.36.9a5.76,5.76,0,0,1-2.7.6Zm2.34-.54a4.17,4.17,0,0,0,1.68-1.68l.72.48a5.36,5.36,0,0,1-2,2.1Zm1.68-1.68a10.35,10.35,0,0,0,.9-4.8h.84a11.28,11.28,0,0,1-1,5.28Zm.9-4.8V48.64h.84V63.7Zm0-15.06a10.6,10.6,0,0,0-.42-3.12l.78-.3a12.73,12.73,0,0,1,.48,3.42Zm-.42-3.12a11.49,11.49,0,0,0-1.26-2.76l.66-.54a10.52,10.52,0,0,1,1.38,3Zm-1.26-2.76A8.24,8.24,0,0,0,37.65,41l.48-.72a10.16,10.16,0,0,1,1.62,1.92ZM37.65,41a8.59,8.59,0,0,0-1.74-1.2l.3-.89a6.08,6.08,0,0,1,1.92,1.37ZM36.09,39.4l-.18.42a.67.67,0,0,1-.24-.66.44.44,0,0,1,.54-.23Zm-.18-.47a6.75,6.75,0,0,0,1.74-1.21l.48.78a7,7,0,0,1-1.92,1.32Zm2-.79-.24-.42a.42.42,0,0,1,.6.12.56.56,0,0,1-.12.66Zm-.24-.42A6.91,6.91,0,0,0,39.09,36l.66.6a10.41,10.41,0,0,1-1.62,1.91ZM39.09,36a11.08,11.08,0,0,0,1.26-2.7l.78.3a11.47,11.47,0,0,1-1.38,3Zm1.26-2.7a13.12,13.12,0,0,0,.42-3.12h.78a12.72,12.72,0,0,1-.42,3.42Zm.42-3.12-.06-14.46h.84V30.17Zm-.06-14.46a12.19,12.19,0,0,0-1-5.28l.66-.48a12.37,12.37,0,0,1,1.14,5.76Zm-1-5.28A4.67,4.67,0,0,0,38,8.51l.36-.84A5.21,5.21,0,0,1,40.41,10ZM38,8.51a5.21,5.21,0,0,0-2.52-.6V7a6,6,0,0,1,2.88.66Zm-2.52-.6a13.65,13.65,0,0,0-5.88,1.74l-.36-.84A14.38,14.38,0,0,1,35.43,7ZM29.55,9.65,6.28,21.83l-.36-.9L29.19,8.81ZM6.1,21.35l.18.48c-.24.06-.48,0-.54-.24a.55.55,0,0,1,.18-.66Zm.42,0V57H5.68V21.35ZM6.1,57h.42a.46.46,0,0,1-.42.48A.46.46,0,0,1,5.68,57Z"/><path class="cls-1" d="M30.57,24.23c0-.84-.48-1.14-1.38-.9l-18.35,5v7l18.53-2.1a1.33,1.33,0,0,0,1.2-1.5V24.23Z"/><polygon class="cls-3" points="11.74 29.81 29.31 25.61 29.31 30.77 11.74 33.47 11.74 29.81"/><polygon class="cls-1" points="25.65 27.83 27.69 27.47 27.69 29.51 25.65 29.87 25.65 27.83"/><polygon class="cls-1" points="13.96 30.59 22.59 28.73 22.59 30.23 21.28 30.46 13.96 31.91 13.96 30.59"/><path class="cls-1" d="M30.57,54.64c0,.9-.48,1.2-1.38,1L10.84,51.1v-7l18.53,1.56c.78.06,1.2.54,1.2,1.44v7.56Z"/><polygon class="cls-3" points="11.74 49.66 29.31 53.26 29.31 48.16 11.74 46 11.74 49.66"/><polygon class="cls-1" points="25.65 51.16 27.69 51.52 27.69 49.42 25.65 49.18 25.65 51.16"/><polygon class="cls-1" points="13.96 48.82 22.59 50.38 22.59 48.88 21.28 48.64 13.96 47.5 13.96 48.82"/></g></g></svg>