<svg id="Layer_1" data-name="Layer 1" xmlns="http://www.w3.org/2000/svg" viewBox="0 0 141.36 137.43">
    <title>instagram</title>
    <path d="M91.31,38.27H50a10.81,10.81,0,0,0-10.8,10.8V90.33A10.81,10.81,0,0,0,50,101.13H91.31a10.81,10.81,0,0,0,10.8-10.8V49.06A10.81,10.81,0,0,0,91.31,38.27Zm3.27,10.8v7.36H83.83V45.8h7.48A3.27,3.27,0,0,1,94.58,49.06Zm-23.9,10A10.64,10.64,0,1,1,60,69.7,10.66,10.66,0,0,1,70.68,59.05ZM91.31,93.6H50a3.27,3.27,0,0,1-3.27-3.27V63.6h6.86a18,18,0,0,0-1.13,6.1,18.17,18.17,0,1,0,36.35,0,18,18,0,0,0-1.13-6.1h6.86V90.33A3.27,3.27,0,0,1,91.31,93.6Z"/>
</svg>