<!DOCTYPE svg PUBLIC "-//W3C//DTD SVG 20010904//EN" "http://www.w3.org/TR/2001/REC-SVG-20010904/DTD/svg10.dtd">
<svg version="1.0" xmlns="http://www.w3.org/2000/svg" width="504px" height="504px" viewBox="0 0 5040 5040" preserveAspectRatio="xMidYMid meet">
<g id="layer101" fill="#000000" stroke="none">
 <path d="M1390 5024 c-163 -9 -239 -19 -315 -38 -281 -70 -477 -177 -660 -361 -184 -184 -292 -380 -361 -660 -43 -171 -53 -456 -53 -1445 0 -989 10 -1274 53 -1445 69 -280 177 -476 361 -660 184 -184 380 -292 660 -361 171 -43 456 -53 1445 -53 989 0 1274 10 1445 53 280 69 476 177 660 361 184 184 292 380 361 660 43 171 53 456 53 1445 0 989 -10 1274 -53 1445 -69 280 -177 476 -361 660 -184 184 -380 292 -660 361 -174 44 -454 53 -1470 52 -599 0 -960 -5 -1105 -14z m2230 -473 c58 -6 141 -18 185 -27 397 -78 638 -318 719 -714 37 -183 41 -309 41 -1290 0 -981 -4 -1107 -41 -1290 -81 -395 -319 -633 -714 -714 -183 -37 -309 -41 -1290 -41 -981 0 -1107 4 -1290 41 -397 81 -636 322 -714 719 -33 166 -38 296 -43 1100 -5 796 3 1203 27 1380 67 489 338 758 830 825 47 7 162 15 255 20 250 12 1907 4 2035 -9z"/>
 <path d="M2355 3819 c-307 -42 -561 -172 -780 -400 -244 -253 -359 -543 -359 -899 0 -361 116 -648 367 -907 262 -269 563 -397 937 -397 374 0 675 128 937 397 251 259 367 546 367 907 0 361 -116 648 -367 907 -197 203 -422 326 -690 378 -101 20 -317 27 -412 14z m400 -509 c275 -88 470 -284 557 -560 20 -65 23 -95 23 -230 0 -135 -3 -165 -23 -230 -88 -278 -284 -474 -562 -562 -65 -20 -95 -23 -230 -23 -135 0 -165 3 -230 23 -278 88 -474 284 -562 562 -20 65 -23 95 -23 230 0 135 3 165 23 230 73 230 219 403 427 507 134 67 212 83 390 79 111 -3 155 -8 210 -26z"/>
 <path d="M3750 1473 c-29 -11 -66 -38 -106 -77 -70 -71 -94 -126 -94 -221 0 -95 24 -150 94 -221 72 -71 126 -94 225 -94 168 0 311 143 311 311 0 99 -23 154 -94 225 -43 42 -76 66 -110 77 -61 21 -166 21 -226 0z"/>
 </g>

</svg>