<?xml version="1.0" encoding="UTF-8" standalone="no"?>
<!-- Created with Inkscape (http://www.inkscape.org/) -->

<svg
   width="1023.9999"
   height="1023.9999"
   viewBox="0 0 270.93333 270.93333"
   version="1.1"
   id="svg5"
   xml:space="preserve"
   inkscape:version="1.2.2 (b0a8486541, 2022-12-01)"
   sodipodi:docname="drawing.svg"
   inkscape:export-filename="../public/logo.svg"
   inkscape:export-xdpi="96"
   inkscape:export-ydpi="96"
   xmlns:inkscape="http://www.inkscape.org/namespaces/inkscape"
   xmlns:sodipodi="http://sodipodi.sourceforge.net/DTD/sodipodi-0.dtd"
   xmlns="http://www.w3.org/2000/svg"
   xmlns:svg="http://www.w3.org/2000/svg"><sodipodi:namedview
     id="namedview7"
     pagecolor="#ffffff"
     bordercolor="#666666"
     borderopacity="1.0"
     inkscape:showpageshadow="2"
     inkscape:pageopacity="0.0"
     inkscape:pagecheckerboard="0"
     inkscape:deskcolor="#d1d1d1"
     inkscape:document-units="mm"
     showgrid="false"
     inkscape:zoom="0.63895401"
     inkscape:cx="477.34265"
     inkscape:cy="486.733"
     inkscape:window-width="1920"
     inkscape:window-height="1056"
     inkscape:window-x="0"
     inkscape:window-y="0"
     inkscape:window-maximized="1"
     inkscape:current-layer="layer1" /><defs
     id="defs2" /><g
     inkscape:label="Layer 1"
     inkscape:groupmode="layer"
     id="layer1"><path
       id="path8932"
       style="fill:#ffffff;stroke-width:0.0715114"
       d="M 134.21267,4.2600602 C 125.23724,4.3758509 120.0886,5.4813466 110.29201,9.3960126 93.27488,16.195963 77.776387,32.264168 68.884618,52.324813 62.265715,67.257658 58.723523,85.085427 58.812795,103.01853 l 0.01767,3.56838 v 0 c 1.389767,15.89728 3.684909,30.98331 8.065323,44.51911 0.04047,-0.0263 -0.0014,-0.001 0,0 0.02568,0.0257 0.41725,1.10929 0.870432,2.40722 6.108926,17.49604 16.632095,36.22208 28.486568,50.88866 13.221442,-6.80419 25.135912,-14.44158 34.500942,-23.94629 -7.03124,-8.32506 -14.13235,-19.42843 -18.91524,-29.74178 -2.5619,-5.5244 -6.28843,-15.2863 -6.56443,-17.19547 -0.002,-0.0142 -0.0136,0.0163 0,0 -4.14754,-14.30628 -5.21288,-29.13861 -3.98625,-42.331461 l 0.0184,-0.09391 c -0.0172,-0.193535 0.31727,-1.893447 0.61836,-3.688772 2.80368,-16.718487 9.62748,-29.384142 19.88086,-36.901326 2.10322,-1.541947 6.53715,-3.470181 9.54683,-4.151514 0.76199,-0.172484 2.38098,-0.258674 4.00103,-0.258792 1.61997,-1.17e-4 3.24131,0.08583 4.00843,0.258224 3.14386,0.706491 7.39719,2.558724 9.63575,4.195974 9.43695,6.902079 16.18451,18.744096 19.17175,33.398504 15.6112,3.012882 30.67721,8.408127 43.72855,15.0037 -0.16316,-4.645636 -0.59311,-10.151667 -1.1686,-14.265518 C 207.61514,62.424711 199.94063,44.022192 187.96006,30.088038 179.02804,19.699507 169.72405,12.883602 158.84816,8.7604439 149.20169,5.1033757 143.90155,4.1350776 134.21269,4.2600737 Z M 133.52179,88.02737 c -8.91018,0.08627 -17.29227,0.779465 -25.52413,2.096559 -0.59029,14.855551 0.18225,28.985851 3.82487,41.818971 7.60759,-1.34911 15.3315,-2.03896 23.04738,-2.0675 7.72797,-0.0286 15.44835,0.60517 23.03483,1.90218 3.78465,0.64706 7.60961,1.47129 7.55742,1.62857 -0.001,0.005 -0.0354,0.12029 -0.0393,0.13339 14.35951,3.59529 27.61358,10.0129 38.35033,17.64236 l -0.0111,0.0929 c 0.0841,-0.1968 0.13884,-0.25899 0.19893,-0.20691 0.0647,0.0561 0.66526,0.53049 1.33387,1.05397 13.50171,10.572 21.55838,22.81029 23.50682,35.70712 0.55135,3.64942 -0.0976,9.55982 -1.36863,12.46081 -2.01619,4.60176 -4.48377,7.49693 -9.05206,10.62247 -3.72363,2.54764 -9.72657,4.41792 -16.26858,5.06811 -6.78727,0.67459 -14.78442,-0.26451 -22.88378,-2.68653 -0.69873,-0.20895 -1.49852,-0.46453 -2.33198,-0.74218 -10.42054,12.00396 -22.65751,22.3449 -34.94841,30.36025 5.09018,2.7286 11.09025,5.49107 16.29196,7.43146 12.7374,4.75132 23.71802,7.12304 35.43408,7.65319 19.09428,0.86402 39.25372,-4.90942 51.41652,-14.72495 6.36162,-5.13398 8.59248,-7.24728 11.63654,-11.02434 2.13014,-2.64306 3.11754,-4.16549 6.56502,-10.11914 3.8399,-6.63139 6.34012,-15.147 7.32941,-24.9638 0.8637,-8.57047 -0.0564,-17.00095 -2.91112,-26.66704 -0.49368,-1.67158 -0.91435,-3.10383 -0.93486,-3.18248 -0.46135,-1.76553 -2.96953,-7.87374 -4.5511,-11.08419 -7.5165,-15.25769 -20.58567,-29.94489 -36.74912,-41.29796 -3.89837,-2.73809 -9.10569,-5.9562 -18.58699,-10.63431 -9.48128,-4.678131 -23.67244,-10.148842 -30.64136,-11.562707 -6.96892,-1.413855 -7.49314,-1.525726 -8.10278,-1.658069 -6.63464,-1.440366 -17.82492,-2.700618 -26.28056,-2.959585 -1.51327,-0.04634 -3.00952,-0.07641 -4.49011,-0.09059 -1.29554,-0.01245 -2.57937,-0.01233 -3.85225,0 z M 52.216432,110.39641 C 38.649057,118.70389 25.927419,130.09808 17.315905,141.78499 4.2298574,159.54437 -2.100977,180.8513 0.31767227,198.99413 1.9069293,210.91556 4.3854089,217.75692 10.689899,227.62321 c 5.733819,8.97319 16.037789,17.78908 26.640825,22.79371 9.272747,4.37667 21.59415,7.24683 32.628966,7.60074 20.500334,0.65753 43.91027,-5.89812 63.50224,-17.78315 1.00296,-0.60841 1.84565,-1.11846 1.87311,-1.13379 0.005,-0.002 0.0812,0.0471 0.0986,0.053 13.1604,-9.0775 25.05096,-18.61542 34.63489,-29.1552 l -0.21603,-0.0963 0.52385,-0.5911 c 12.37825,-13.97372 24.23134,-33.79183 31.10071,-51.69811 -12.55715,-7.96939 -25.169,-14.401 -38.0961,-17.70678 -5.36041,15.0597 -15.40558,31.91315 -26.28056,43.78498 -0.57646,0.6293 -1.2077,1.29903 -1.40284,1.48835 l -5.59207,5.71218 c -5.23693,5.36847 -17.24776,13.58618 -29.25317,19.01564 0.0262,0.0343 0,-0.005 0,0 0,0.0505 -1.495448,0.65823 -3.503959,1.42337 -6.756776,2.57394 -14.284581,4.29457 -20.631016,4.7164 -7.580415,0.50385 -14.655376,-0.58466 -20.901782,-3.21667 -2.613623,-1.10128 -5.354691,-3.02841 -8.085275,-5.68318 -1.541871,-1.49905 -3.426669,-4.44338 -4.545403,-7.1014 -0.904199,-2.1483 -1.714479,-7.86262 -1.472382,-10.3859 1.154209,-12.03022 7.818634,-23.6047 19.504074,-33.96 -5.234404,-14.98823 -8.139632,-30.70791 -9.00017,-45.30352 z"
       sodipodi:nodetypes="csscccccscccsccccssssscccssscscssscccscssssscccssssssccccccssscsssssssccccccsccccssssssccsss" /></g></svg>
