<?xml version="1.0" encoding="UTF-8"?>
<!DOCTYPE svg PUBLIC "-//W3C//DTD SVG 1.1//EN" "http://www.w3.org/Graphics/SVG/1.1/DTD/svg11.dtd">
<svg xmlns="http://www.w3.org/2000/svg" version="1.1" width="920px" height="996px" style="shape-rendering:geometricPrecision; text-rendering:geometricPrecision; image-rendering:optimizeQuality; fill-rule:evenodd; clip-rule:evenodd" xmlns:xlink="http://www.w3.org/1999/xlink">
<g><path style="opacity:0.986" fill="#bdd882" d="M 507.5,45.5 C 507.489,47.0174 506.823,48.1841 505.5,49C 492.382,56.4155 479.382,63.9155 466.5,71.5C 463.887,72.4349 461.221,72.6015 458.5,72C 444.219,63.4069 429.886,54.9069 415.5,46.5C 430.397,36.2941 446.064,27.2941 462.5,19.5C 477.721,27.9386 492.721,36.6053 507.5,45.5 Z"/></g>
<g><path style="opacity:0.997" fill="#a4ce6e" d="M 415.5,46.5 C 429.886,54.9069 444.219,63.4069 458.5,72C 461.221,72.6015 463.887,72.4349 466.5,71.5C 465.087,72.9348 463.42,73.9348 461.5,74.5C 446.54,82.3133 431.874,90.6466 417.5,99.5C 400.614,91.9906 384.614,82.9906 369.5,72.5C 383.402,64.876 397.068,56.7094 410.5,48C 412.025,46.9914 413.692,46.4914 415.5,46.5 Z"/></g>
<g><path style="opacity:0.997" fill="#95c863" d="M 507.5,45.5 C 522.838,54.1687 538.171,62.8354 553.5,71.5C 552.409,74.4278 550.409,76.5945 547.5,78C 535.073,84.1873 523.073,91.0207 511.5,98.5C 509.589,99.075 507.922,100.075 506.5,101.5C 505.746,98.909 504.079,97.0757 501.5,96C 489.468,88.9864 477.468,81.9864 465.5,75C 464.207,74.51 462.873,74.3433 461.5,74.5C 463.42,73.9348 465.087,72.9348 466.5,71.5C 479.382,63.9155 492.382,56.4155 505.5,49C 506.823,48.1841 507.489,47.0174 507.5,45.5 Z"/></g>
<g><path style="opacity:0.99" fill="#97c964" d="M 369.5,72.5 C 384.614,82.9906 400.614,91.9906 417.5,99.5C 403.237,107.52 388.904,115.686 374.5,124C 373.177,124.816 372.511,125.983 372.5,127.5C 371.167,127.5 369.833,127.5 368.5,127.5C 367.043,125.215 365.043,123.382 362.5,122C 348.999,114.635 335.666,107.135 322.5,99.5C 338.29,90.77 353.956,81.77 369.5,72.5 Z"/></g>
<g><path style="opacity:1" fill="#8dc65f" d="M 461.5,74.5 C 462.873,74.3433 464.207,74.51 465.5,75C 477.468,81.9864 489.468,88.9864 501.5,96C 504.079,97.0757 505.746,98.909 506.5,101.5C 491.774,109.284 477.441,117.617 463.5,126.5C 448.126,134.97 432.793,143.637 417.5,152.5C 415.55,151.628 413.55,150.961 411.5,150.5C 398.397,143.02 385.397,135.353 372.5,127.5C 372.511,125.983 373.177,124.816 374.5,124C 388.904,115.686 403.237,107.52 417.5,99.5C 431.874,90.6466 446.54,82.3133 461.5,74.5 Z"/></g>
<g><path style="opacity:0.992" fill="#b7d57a" d="M 553.5,71.5 C 568.294,80.2737 583.294,88.7737 598.5,97C 599.381,97.7083 600.047,98.5416 600.5,99.5C 585.846,108.161 571.179,116.828 556.5,125.5C 554.073,125.477 551.74,124.977 549.5,124C 537.193,117.043 524.86,110.043 512.5,103C 510.452,101.774 510.119,100.274 511.5,98.5C 523.073,91.0207 535.073,84.1873 547.5,78C 550.409,76.5945 552.409,74.4278 553.5,71.5 Z"/></g>
<g><path style="opacity:0.991" fill="#8dc65f" d="M 322.5,99.5 C 335.666,107.135 348.999,114.635 362.5,122C 365.043,123.382 367.043,125.215 368.5,127.5C 353.744,136.406 338.744,144.739 323.5,152.5C 323.167,152.5 322.833,152.5 322.5,152.5C 309.592,145.039 296.592,137.539 283.5,130C 281.314,128.588 279.648,126.755 278.5,124.5C 292.946,115.794 307.613,107.461 322.5,99.5 Z"/></g>
<g><path style="opacity:1" fill="#a5ce6e" d="M 511.5,98.5 C 510.119,100.274 510.452,101.774 512.5,103C 524.86,110.043 537.193,117.043 549.5,124C 551.74,124.977 554.073,125.477 556.5,125.5C 540.71,134.23 525.044,143.23 509.5,152.5C 508.127,152.657 506.793,152.49 505.5,152C 493.964,145.067 482.297,138.4 470.5,132C 467.98,130.303 465.647,128.47 463.5,126.5C 477.441,117.617 491.774,109.284 506.5,101.5C 507.922,100.075 509.589,99.075 511.5,98.5 Z"/></g>
<g><path style="opacity:0.997" fill="#8dc65f" d="M 600.5,99.5 C 608.484,103.561 616.484,107.727 624.5,112C 631.675,116.363 638.675,120.863 645.5,125.5C 645.586,126.496 645.252,127.329 644.5,128C 629.889,135.64 615.555,143.807 601.5,152.5C 571.518,170.25 541.352,187.916 511,205.5C 510.251,206.635 510.417,207.635 511.5,208.5C 525.553,216.186 539.22,224.353 552.5,233C 551.619,233.708 550.953,234.542 550.5,235.5C 538.047,242.12 525.714,248.954 513.5,256C 509.531,259.47 510.198,262.137 515.5,264C 527.663,270.554 539.663,277.387 551.5,284.5C 552.59,285.391 552.59,286.391 551.5,287.5C 537.836,295.495 524.17,303.495 510.5,311.5C 509.167,311.5 507.833,311.5 506.5,311.5C 492.613,303.582 478.613,295.749 464.5,288C 463.748,287.329 463.414,286.496 463.5,285.5C 472.481,279.683 481.814,274.516 491.5,270C 496.537,266.487 501.537,262.987 506.5,259.5C 493.463,250.982 480.13,242.982 466.5,235.5C 466.047,234.542 465.381,233.708 464.5,233C 466.647,230.763 468.98,228.763 471.5,227C 483.495,220.671 495.162,213.838 506.5,206.5C 506.023,205.522 505.357,204.689 504.5,204C 491.07,195.696 477.403,187.863 463.5,180.5C 463.414,179.504 463.748,178.671 464.5,178C 479.671,169.631 494.671,161.131 509.5,152.5C 525.044,143.23 540.71,134.23 556.5,125.5C 571.179,116.828 585.846,108.161 600.5,99.5 Z"/></g>
<g><path style="opacity:1" fill="#97c863" d="M 463.5,126.5 C 465.647,128.47 467.98,130.303 470.5,132C 482.297,138.4 493.964,145.067 505.5,152C 506.793,152.49 508.127,152.657 509.5,152.5C 494.671,161.131 479.671,169.631 464.5,178C 463.748,178.671 463.414,179.504 463.5,180.5C 462.833,180.5 462.167,180.5 461.5,180.5C 454.563,175.129 446.896,170.629 438.5,167C 432.5,163 426.5,159 420.5,155C 418.527,154.505 416.527,154.338 414.5,154.5C 413.789,152.97 412.789,151.637 411.5,150.5C 413.55,150.961 415.55,151.628 417.5,152.5C 432.793,143.637 448.126,134.97 463.5,126.5 Z"/></g>
<g><path style="opacity:1" fill="#c2da82" d="M 278.5,124.5 C 279.648,126.755 281.314,128.588 283.5,130C 296.592,137.539 309.592,145.039 322.5,152.5C 321.969,154.624 320.635,156.124 318.5,157C 305.724,163.608 293.391,170.941 281.5,179C 279.311,179.322 277.311,178.822 275.5,177.5C 270.735,175.618 266.068,173.452 261.5,171C 253.487,164.989 244.82,159.989 235.5,156C 234.295,154.624 232.962,153.458 231.5,152.5C 246.677,142.431 262.343,133.098 278.5,124.5 Z"/></g>
<g><path style="opacity:1" fill="#a5ce6e" d="M 368.5,127.5 C 369.833,127.5 371.167,127.5 372.5,127.5C 385.397,135.353 398.397,143.02 411.5,150.5C 412.789,151.637 413.789,152.97 414.5,154.5C 399.603,162.107 385.269,170.44 371.5,179.5C 370.395,180.6 369.062,181.267 367.5,181.5C 367.611,180.883 367.944,180.383 368.5,180C 366.5,178.333 364.5,176.667 362.5,175C 349.143,167.992 336.143,160.492 323.5,152.5C 338.744,144.739 353.744,136.406 368.5,127.5 Z"/></g>
<g><path style="opacity:1" fill="#b4d475" d="M 645.5,125.5 C 647.308,125.491 648.975,125.991 650.5,127C 661.278,133.705 672.278,140.039 683.5,146C 685.618,147.049 687.284,148.549 688.5,150.5C 687.957,150.56 687.624,150.893 687.5,151.5C 688.5,152.167 689.5,152.833 690.5,153.5C 676.94,162.31 662.94,170.477 648.5,178C 647.748,178.671 647.414,179.504 647.5,180.5C 647.167,180.5 646.833,180.5 646.5,180.5C 632.241,171.432 617.574,162.932 602.5,155C 601.748,154.329 601.414,153.496 601.5,152.5C 615.555,143.807 629.889,135.64 644.5,128C 645.252,127.329 645.586,126.496 645.5,125.5 Z"/></g>
<g><path style="opacity:0.99" fill="#b7d578" d="M 688.5,150.5 C 693.491,151.997 698.158,154.163 702.5,157C 714.5,164 726.5,171 738.5,178C 739.381,178.708 740.047,179.542 740.5,180.5C 738.345,180.372 736.345,180.872 734.5,182C 720.406,189.703 706.74,197.869 693.5,206.5C 692.609,205.89 691.609,205.557 690.5,205.5C 676.383,196.7 662.05,188.366 647.5,180.5C 647.414,179.504 647.748,178.671 648.5,178C 662.94,170.477 676.94,162.31 690.5,153.5C 689.5,152.833 688.5,152.167 687.5,151.5C 687.624,150.893 687.957,150.56 688.5,150.5 Z"/></g>
<g><path style="opacity:0.999" fill="#84c256" d="M 231.5,152.5 C 232.962,153.458 234.295,154.624 235.5,156C 244.82,159.989 253.487,164.989 261.5,171C 266.068,173.452 270.735,175.618 275.5,177.5C 275.833,178.167 276.167,178.833 276.5,179.5C 276.489,181.017 275.823,182.184 274.5,183C 269.929,184.594 265.595,186.594 261.5,189C 259.208,190.29 257.208,191.957 255.5,194C 253,194.375 250.667,195.208 248.5,196.5C 244.157,198.649 240.157,201.483 236.5,205C 234.866,205.494 233.199,205.66 231.5,205.5C 216.271,198.134 201.604,189.634 187.5,180C 191.714,176.458 196.381,173.791 201.5,172C 202.252,171.329 202.586,170.496 202.5,169.5C 204.118,167.684 206.118,166.351 208.5,165.5C 210.027,165.573 211.027,164.906 211.5,163.5C 217.315,160.279 222.982,156.779 228.5,153C 229.448,152.517 230.448,152.351 231.5,152.5 Z"/></g>
<g><path style="opacity:1" fill="#b4d478" d="M 322.5,152.5 C 322.833,152.5 323.167,152.5 323.5,152.5C 336.143,160.492 349.143,167.992 362.5,175C 364.5,176.667 366.5,178.333 368.5,180C 367.944,180.383 367.611,180.883 367.5,181.5C 356.189,188.437 344.523,194.937 332.5,201C 329.98,202.697 327.647,204.53 325.5,206.5C 310.43,198.795 295.763,190.295 281.5,181C 279.753,180.648 278.086,180.148 276.5,179.5C 276.167,178.833 275.833,178.167 275.5,177.5C 277.311,178.822 279.311,179.322 281.5,179C 293.391,170.941 305.724,163.608 318.5,157C 320.635,156.124 321.969,154.624 322.5,152.5 Z"/></g>
<g><path style="opacity:1" fill="#8dc65f" d="M 414.5,154.5 C 416.527,154.338 418.527,154.505 420.5,155C 426.5,159 432.5,163 438.5,167C 446.896,170.629 454.563,175.129 461.5,180.5C 446.576,188.466 431.91,196.799 417.5,205.5C 406.923,201.235 396.923,195.735 387.5,189C 383.317,186.743 378.984,184.743 374.5,183C 373.29,181.961 372.29,180.794 371.5,179.5C 385.269,170.44 399.603,162.107 414.5,154.5 Z"/></g>
<g><path style="opacity:1" fill="#a0cc6a" d="M 601.5,152.5 C 601.414,153.496 601.748,154.329 602.5,155C 617.574,162.932 632.241,171.432 646.5,180.5C 631.064,188.385 616.064,197.052 601.5,206.5C 615.865,215.682 630.531,224.349 645.5,232.5C 645.5,232.833 645.5,233.167 645.5,233.5C 633.194,240.655 620.861,247.822 608.5,255C 605.439,257.035 602.105,258.201 598.5,258.5C 584.327,250.582 570.327,242.415 556.5,234C 554.311,233.678 552.311,234.178 550.5,235.5C 550.953,234.542 551.619,233.708 552.5,233C 539.22,224.353 525.553,216.186 511.5,208.5C 510.417,207.635 510.251,206.635 511,205.5C 541.352,187.916 571.518,170.25 601.5,152.5 Z"/></g>
<g><path style="opacity:0.025" fill="#5e4633" d="M 211.5,163.5 C 211.027,164.906 210.027,165.573 208.5,165.5C 208.973,164.094 209.973,163.427 211.5,163.5 Z"/></g>
<g><path style="opacity:0.998" fill="#9aca68" d="M 202.5,169.5 C 202.586,170.496 202.252,171.329 201.5,172C 196.381,173.791 191.714,176.458 187.5,180C 201.604,189.634 216.271,198.134 231.5,205.5C 259.939,222.559 288.606,239.392 317.5,256C 319.909,257.707 322.575,258.54 325.5,258.5C 324.294,259.88 324.627,261.047 326.5,262C 327.833,262.333 329.167,262.667 330.5,263C 340.721,268.629 350.721,274.629 360.5,281C 364.213,283.2 368.213,284.7 372.5,285.5C 371.167,286.167 369.833,286.833 368.5,287.5C 355.383,295.229 342.05,302.729 328.5,310C 326.937,310.759 325.937,311.926 325.5,313.5C 324.5,313.5 323.5,313.5 322.5,313.5C 322.063,311.926 321.063,310.759 319.5,310C 305.301,302.404 291.301,294.57 277.5,286.5C 261.917,294.756 246.583,303.423 231.5,312.5C 230.833,312.5 230.167,312.5 229.5,312.5C 214.637,304.563 200.304,295.897 186.5,286.5C 200.972,277.791 215.638,269.457 230.5,261.5C 231.386,260.675 231.719,259.675 231.5,258.5C 229.692,258.509 228.025,258.009 226.5,257C 213.304,248.903 199.97,241.07 186.5,233.5C 170.166,224.026 154.166,214.692 138.5,205.5C 159.58,193.096 180.913,181.096 202.5,169.5 Z"/></g>
<g><path style="opacity:1" fill="#98c964" d="M 371.5,179.5 C 372.29,180.794 373.29,181.961 374.5,183C 378.984,184.743 383.317,186.743 387.5,189C 396.923,195.735 406.923,201.235 417.5,205.5C 416.833,206.167 416.167,206.833 415.5,207.5C 400.344,214.994 385.677,223.327 371.5,232.5C 370.395,233.6 369.062,234.267 367.5,234.5C 368.317,232.692 367.65,231.192 365.5,230C 351.697,222.638 338.363,214.804 325.5,206.5C 327.647,204.53 329.98,202.697 332.5,201C 344.523,194.937 356.189,188.437 367.5,181.5C 369.062,181.267 370.395,180.6 371.5,179.5 Z"/></g>
<g><path style="opacity:1" fill="#8bc55c" d="M 276.5,179.5 C 278.086,180.148 279.753,180.648 281.5,181C 295.763,190.295 310.43,198.795 325.5,206.5C 338.363,214.804 351.697,222.638 365.5,230C 367.65,231.192 368.317,232.692 367.5,234.5C 353.495,242.502 339.495,250.502 325.5,258.5C 322.575,258.54 319.909,257.707 317.5,256C 288.606,239.392 259.939,222.559 231.5,205.5C 233.199,205.66 234.866,205.494 236.5,205C 240.157,201.483 244.157,198.649 248.5,196.5C 250.667,195.208 253,194.375 255.5,194C 257.208,191.957 259.208,190.29 261.5,189C 265.595,186.594 269.929,184.594 274.5,183C 275.823,182.184 276.489,181.017 276.5,179.5 Z"/></g>
<g><path style="opacity:1" fill="#98c964" d="M 646.5,180.5 C 646.833,180.5 647.167,180.5 647.5,180.5C 662.05,188.366 676.383,196.7 690.5,205.5C 690.586,206.496 690.252,207.329 689.5,208C 675.251,216.957 660.585,225.123 645.5,232.5C 630.531,224.349 615.865,215.682 601.5,206.5C 616.064,197.052 631.064,188.385 646.5,180.5 Z"/></g>
<g><path style="opacity:0.993" fill="#bfd87f" d="M 740.5,180.5 C 756.411,188.239 771.745,196.906 786.5,206.5C 770.406,214.977 754.406,223.644 738.5,232.5C 726.842,225.336 714.842,218.836 702.5,213C 699.471,210.824 696.471,208.657 693.5,206.5C 706.74,197.869 720.406,189.703 734.5,182C 736.345,180.872 738.345,180.372 740.5,180.5 Z"/></g>
<g><path style="opacity:1" fill="#a5ce6e" d="M 461.5,180.5 C 462.167,180.5 462.833,180.5 463.5,180.5C 477.403,187.863 491.07,195.696 504.5,204C 505.357,204.689 506.023,205.522 506.5,206.5C 495.162,213.838 483.495,220.671 471.5,227C 468.98,228.763 466.647,230.763 464.5,233C 465.381,233.708 466.047,234.542 466.5,235.5C 457.245,230.534 448.245,225.034 439.5,219C 431.6,214.927 423.6,211.093 415.5,207.5C 416.167,206.833 416.833,206.167 417.5,205.5C 431.91,196.799 446.576,188.466 461.5,180.5 Z"/></g>
<g><path style="opacity:0.989" fill="#8dc65f" d="M 138.5,205.5 C 154.166,214.692 170.166,224.026 186.5,233.5C 170.818,241.515 155.485,250.348 140.5,260C 141.942,260.377 142.942,261.21 143.5,262.5C 140.245,261.234 137.245,259.568 134.5,257.5C 120.328,249.246 105.995,241.246 91.5,233.5C 106.865,223.806 122.531,214.473 138.5,205.5 Z"/></g>
<g><path style="opacity:1" fill="#a5ce6e" d="M 690.5,205.5 C 691.609,205.557 692.609,205.89 693.5,206.5C 696.471,208.657 699.471,210.824 702.5,213C 714.842,218.836 726.842,225.336 738.5,232.5C 754.406,223.644 770.406,214.977 786.5,206.5C 801.387,214.461 816.054,222.794 830.5,231.5C 828.379,234.45 825.713,236.95 822.5,239C 809.849,245.324 797.516,252.157 785.5,259.5C 785.167,259.5 784.833,259.5 784.5,259.5C 772.226,252.359 759.893,245.192 747.5,238C 742.347,233.914 737.014,233.581 731.5,237C 720.071,244.099 708.404,250.766 696.5,257C 693.833,258.667 693.833,260.333 696.5,262C 709.801,269.653 723.135,277.32 736.5,285C 737.684,286.145 737.684,287.312 736.5,288.5C 722.077,295.88 708.077,304.047 694.5,313C 697.481,315.309 700.481,317.642 703.5,320C 710.861,323.735 718.194,327.568 725.5,331.5C 725.586,332.496 725.252,333.329 724.5,334C 709.18,341.992 694.18,350.492 679.5,359.5C 679.586,358.504 679.252,357.671 678.5,357C 669.431,352.473 660.765,347.473 652.5,342C 650.482,341.495 648.482,340.995 646.5,340.5C 646.063,338.926 645.063,337.759 643.5,337C 630.037,329.767 616.703,322.267 603.5,314.5C 602.438,313.575 602.438,312.575 603.5,311.5C 616.146,303.506 629.146,296.006 642.5,289C 643.823,288.184 644.489,287.017 644.5,285.5C 646.199,285.66 647.866,285.494 649.5,285C 663.837,276.499 678.17,267.999 692.5,259.5C 677.309,250.069 661.642,241.402 645.5,233.5C 645.5,233.167 645.5,232.833 645.5,232.5C 660.585,225.123 675.251,216.957 689.5,208C 690.252,207.329 690.586,206.496 690.5,205.5 Z"/></g>
<g><path style="opacity:1" fill="#b4d478" d="M 415.5,207.5 C 423.6,211.093 431.6,214.927 439.5,219C 448.245,225.034 457.245,230.534 466.5,235.5C 480.13,242.982 493.463,250.982 506.5,259.5C 501.537,262.987 496.537,266.487 491.5,270C 481.814,274.516 472.481,279.683 463.5,285.5C 462.833,285.5 462.167,285.5 461.5,285.5C 446.649,277.544 431.982,269.211 417.5,260.5C 403.092,251.788 388.425,243.288 373.5,235C 372.619,234.292 371.953,233.458 371.5,232.5C 385.677,223.327 400.344,214.994 415.5,207.5 Z"/></g>
<g><path style="opacity:1" fill="#84c256" d="M 186.5,233.5 C 199.97,241.07 213.304,248.903 226.5,257C 228.025,258.009 229.692,258.509 231.5,258.5C 231.719,259.675 231.386,260.675 230.5,261.5C 215.638,269.457 200.972,277.791 186.5,286.5C 185.041,286.567 183.708,286.234 182.5,285.5C 170.093,278.957 157.76,272.123 145.5,265C 144.619,264.292 143.953,263.458 143.5,262.5C 142.942,261.21 141.942,260.377 140.5,260C 155.485,250.348 170.818,241.515 186.5,233.5 Z"/></g>
<g><path style="opacity:1" fill="#a7cf70" d="M 371.5,232.5 C 371.953,233.458 372.619,234.292 373.5,235C 388.425,243.288 403.092,251.788 417.5,260.5C 414.593,260.575 411.927,261.409 409.5,263C 397.136,270.512 384.802,278.012 372.5,285.5C 368.213,284.7 364.213,283.2 360.5,281C 350.721,274.629 340.721,268.629 330.5,263C 329.167,262.667 327.833,262.333 326.5,262C 324.627,261.047 324.294,259.88 325.5,258.5C 339.495,250.502 353.495,242.502 367.5,234.5C 369.062,234.267 370.395,233.6 371.5,232.5 Z"/></g>
<g><path style="opacity:1" fill="#b4d475" d="M 645.5,233.5 C 661.642,241.402 677.309,250.069 692.5,259.5C 678.17,267.999 663.837,276.499 649.5,285C 647.866,285.494 646.199,285.66 644.5,285.5C 632.491,277.565 620.158,270.065 607.5,263C 604.629,262.869 602.295,261.703 600.5,259.5C 599.817,259.863 599.15,260.196 598.5,260.5C 598.5,259.833 598.5,259.167 598.5,258.5C 602.105,258.201 605.439,257.035 608.5,255C 620.861,247.822 633.194,240.655 645.5,233.5 Z"/></g>
<g><path style="opacity:1" fill="#98c964" d="M 784.5,259.5 C 772.236,268.203 759.236,276.036 745.5,283C 743.365,283.876 742.031,285.376 741.5,287.5C 739.784,287.629 738.117,287.962 736.5,288.5C 737.684,287.312 737.684,286.145 736.5,285C 723.135,277.32 709.801,269.653 696.5,262C 693.833,260.333 693.833,258.667 696.5,257C 708.404,250.766 720.071,244.099 731.5,237C 737.014,233.581 742.347,233.914 747.5,238C 759.893,245.192 772.226,252.359 784.5,259.5 Z"/></g>
<g><path style="opacity:0.987" fill="#8dc65f" d="M 830.5,231.5 C 842.535,238.515 854.535,245.515 866.5,252.5C 865.022,252.238 863.689,252.571 862.5,253.5C 848.341,262.644 833.674,270.977 818.5,278.5C 807.195,272.49 796.195,266.157 785.5,259.5C 797.516,252.157 809.849,245.324 822.5,239C 825.713,236.95 828.379,234.45 830.5,231.5 Z"/></g>
<g><path style="opacity:1" fill="#aed175" d="M 91.5,233.5 C 105.995,241.246 120.328,249.246 134.5,257.5C 136.319,258.936 136.652,260.603 135.5,262.5C 125.849,268.996 115.849,274.83 105.5,280C 106.056,280.383 106.389,280.883 106.5,281.5C 90.0163,271.267 73.3497,261.6 56.5,252.5C 66.2673,247.781 75.6007,242.281 84.5,236C 86.743,234.864 89.0763,234.03 91.5,233.5 Z"/></g>
<g><path style="opacity:1" fill="#a1ce84" d="M 56.5,252.5 C 73.3497,261.6 90.0163,271.267 106.5,281.5C 121.476,290.128 136.476,298.795 151.5,307.5C 165.032,315.432 178.699,323.099 192.5,330.5C 239.211,357.699 286.211,384.699 333.5,411.5C 363.809,428.166 393.809,445.666 423.5,464C 436.545,470.855 449.545,477.688 462.5,484.5C 462.589,487.709 462.256,490.875 461.5,494C 461.316,495.376 460.649,496.209 459.5,496.5C 454.844,494.703 450.51,492.203 446.5,489C 436.638,483.236 426.638,477.736 416.5,472.5C 401.056,464.577 386.056,455.91 371.5,446.5C 356.577,437.844 341.577,429.177 326.5,420.5C 311.118,410.246 295.118,400.913 278.5,392.5C 263.832,384.164 249.165,375.831 234.5,367.5C 231.666,365.25 228.666,363.084 225.5,361C 216.255,357.043 207.588,352.043 199.5,346C 196.94,345.616 194.606,344.783 192.5,343.5C 190.906,342.017 189.24,340.517 187.5,339C 172.667,330.97 158,322.803 143.5,314.5C 127.426,304.291 110.759,294.957 93.5,286.5C 81.1304,278.467 68.4637,270.634 55.5,263C 52.4383,261.795 49.4383,260.628 46.5,259.5C 48.5617,257.63 49.8951,255.297 50.5,252.5C 52.5316,253.819 54.5316,253.819 56.5,252.5 Z"/></g>
<g><path style="opacity:1" fill="#84c26f" d="M 866.5,252.5 C 870.947,253.615 874.613,255.948 877.5,259.5C 876.833,259.5 876.5,259.833 876.5,260.5C 859.643,269.09 843.31,278.423 827.5,288.5C 812.232,296.801 797.232,305.468 782.5,314.5C 780.821,314.892 779.154,315.392 777.5,316C 765.136,323.512 752.802,331.012 740.5,338.5C 738.973,338.427 737.973,339.094 737.5,340.5C 726.029,346.402 714.696,352.569 703.5,359C 699.474,361.93 695.474,364.763 691.5,367.5C 661.162,383.74 631.162,400.74 601.5,418.5C 555.325,445.421 508.992,472.088 462.5,498.5C 462.167,498.5 461.833,498.5 461.5,498.5C 460.5,498.167 459.833,497.5 459.5,496.5C 460.649,496.209 461.316,495.376 461.5,494C 462.256,490.875 462.589,487.709 462.5,484.5C 469.14,482.218 475.14,478.718 480.5,474C 516.377,453.773 552.044,433.273 587.5,412.5C 603.029,403.875 618.363,394.875 633.5,385.5C 648.934,377.021 664.268,368.354 679.5,359.5C 694.18,350.492 709.18,341.992 724.5,334C 725.252,333.329 725.586,332.496 725.5,331.5C 726.873,331.657 728.207,331.49 729.5,331C 742.595,322.901 755.929,315.235 769.5,308C 770.381,307.292 771.047,306.458 771.5,305.5C 784.435,297.765 797.768,290.599 811.5,284C 814.186,282.424 816.52,280.591 818.5,278.5C 833.674,270.977 848.341,262.644 862.5,253.5C 863.689,252.571 865.022,252.238 866.5,252.5 Z"/></g>
<g><path style="opacity:0.977" fill="#6ba749" d="M 46.5,259.5 C 49.4383,260.628 52.4383,261.795 55.5,263C 68.4637,270.634 81.1304,278.467 93.5,286.5C 93.5,303.833 93.5,321.167 93.5,338.5C 91.6916,338.509 90.0249,338.009 88.5,337C 74.3733,329.038 60.3733,320.871 46.5,312.5C 46.5,294.833 46.5,277.167 46.5,259.5 Z"/></g>
<g><path style="opacity:1" fill="#a5ce6f" d="M 134.5,257.5 C 137.245,259.568 140.245,261.234 143.5,262.5C 143.953,263.458 144.619,264.292 145.5,265C 157.76,272.123 170.093,278.957 182.5,285.5C 182.439,287.592 181.439,289.092 179.5,290C 172.147,294.033 164.813,298.033 157.5,302C 154.957,303.382 152.957,305.215 151.5,307.5C 136.476,298.795 121.476,290.128 106.5,281.5C 106.389,280.883 106.056,280.383 105.5,280C 115.849,274.83 125.849,268.996 135.5,262.5C 136.652,260.603 136.319,258.936 134.5,257.5 Z"/></g>
<g><path style="opacity:1" fill="#95c863" d="M 417.5,260.5 C 431.982,269.211 446.649,277.544 461.5,285.5C 450.123,293.37 438.123,300.536 425.5,307C 422.509,308.965 419.843,311.132 417.5,313.5C 403.485,305.432 389.485,297.265 375.5,289C 373.323,287.798 370.989,287.298 368.5,287.5C 369.833,286.833 371.167,286.167 372.5,285.5C 384.802,278.012 397.136,270.512 409.5,263C 411.927,261.409 414.593,260.575 417.5,260.5 Z"/></g>
<g><path style="opacity:1" fill="#8dc65f" d="M 644.5,285.5 C 644.489,287.017 643.823,288.184 642.5,289C 629.146,296.006 616.146,303.506 603.5,311.5C 602.036,312.405 600.702,312.405 599.5,311.5C 590.566,307.7 582.232,302.866 574.5,297C 567.588,294.279 561.254,290.612 555.5,286C 569.522,276.776 583.855,268.276 598.5,260.5C 599.15,260.196 599.817,259.863 600.5,259.5C 602.295,261.703 604.629,262.869 607.5,263C 620.158,270.065 632.491,277.565 644.5,285.5 Z"/></g>
<g><path style="opacity:1" fill="#9ecb6a" d="M 784.5,259.5 C 784.833,259.5 785.167,259.5 785.5,259.5C 796.195,266.157 807.195,272.49 818.5,278.5C 816.52,280.591 814.186,282.424 811.5,284C 797.768,290.599 784.435,297.765 771.5,305.5C 761.554,299.308 751.554,293.308 741.5,287.5C 742.031,285.376 743.365,283.876 745.5,283C 759.236,276.036 772.236,268.203 784.5,259.5 Z"/></g>
<g><path style="opacity:1" fill="#416c3a" d="M 876.5,260.5 C 876.819,278.243 876.486,295.91 875.5,313.5C 860.833,321.833 846.167,330.167 831.5,338.5C 830.167,321.833 828.833,305.167 827.5,288.5C 843.31,278.423 859.643,269.09 876.5,260.5 Z"/></g>
<g><path style="opacity:1" fill="#90c65f" d="M 182.5,285.5 C 183.708,286.234 185.041,286.567 186.5,286.5C 200.304,295.897 214.637,304.563 229.5,312.5C 228.969,314.624 227.635,316.124 225.5,317C 217.111,321.472 208.778,326.139 200.5,331C 197.779,331.602 195.113,331.435 192.5,330.5C 178.699,323.099 165.032,315.432 151.5,307.5C 152.957,305.215 154.957,303.382 157.5,302C 164.813,298.033 172.147,294.033 179.5,290C 181.439,289.092 182.439,287.592 182.5,285.5 Z"/></g>
<g><path style="opacity:1" fill="#80bd5a" d="M 93.5,286.5 C 110.759,294.957 127.426,304.291 143.5,314.5C 142.417,314.461 141.417,314.127 140.5,313.5C 139.501,330.487 139.167,347.487 139.5,364.5C 138.5,364.5 137.5,364.5 136.5,364.5C 123.722,357.561 111.056,350.395 98.5,343C 96.3825,341.951 94.7158,340.451 93.5,338.5C 93.5,321.167 93.5,303.833 93.5,286.5 Z"/></g>
<g><path style="opacity:1" fill="#8dc65f" d="M 322.5,313.5 C 307.522,322.131 292.522,330.798 277.5,339.5C 274.951,338.491 272.285,337.658 269.5,337C 264.249,334.089 259.249,330.756 254.5,327C 253.167,326.667 251.833,326.333 250.5,326C 245.989,323.246 241.656,320.246 237.5,317C 234.16,317.149 232.16,315.649 231.5,312.5C 246.583,303.423 261.917,294.756 277.5,286.5C 291.301,294.57 305.301,302.404 319.5,310C 321.063,310.759 322.063,311.926 322.5,313.5 Z"/></g>
<g><path style="opacity:1" fill="#8dc65f" d="M 368.5,287.5 C 370.989,287.298 373.323,287.798 375.5,289C 389.485,297.265 403.485,305.432 417.5,313.5C 431.513,322.175 445.846,330.341 460.5,338C 461.598,338.77 461.598,339.603 460.5,340.5C 446.453,348.521 432.453,356.521 418.5,364.5C 414.636,365.246 410.97,364.413 407.5,362C 392.84,352.511 377.84,343.845 362.5,336C 358.654,331.875 353.987,329.208 348.5,328C 340.388,323.625 332.721,318.792 325.5,313.5C 325.937,311.926 326.937,310.759 328.5,310C 342.05,302.729 355.383,295.229 368.5,287.5 Z"/></g>
<g><path style="opacity:1" fill="#a7cf70" d="M 461.5,285.5 C 462.167,285.5 462.833,285.5 463.5,285.5C 463.414,286.496 463.748,287.329 464.5,288C 478.613,295.749 492.613,303.582 506.5,311.5C 506.719,312.675 506.386,313.675 505.5,314.5C 493.039,321.133 480.706,327.966 468.5,335C 466.234,336.426 464.568,338.26 463.5,340.5C 462.5,340.5 461.5,340.5 460.5,340.5C 461.598,339.603 461.598,338.77 460.5,338C 445.846,330.341 431.513,322.175 417.5,313.5C 419.843,311.132 422.509,308.965 425.5,307C 438.123,300.536 450.123,293.37 461.5,285.5 Z"/></g>
<g><path style="opacity:1" fill="#b4d478" d="M 598.5,258.5 C 598.5,259.167 598.5,259.833 598.5,260.5C 583.855,268.276 569.522,276.776 555.5,286C 561.254,290.612 567.588,294.279 574.5,297C 582.232,302.866 590.566,307.7 599.5,311.5C 599.719,312.675 599.386,313.675 598.5,314.5C 584.181,322.908 569.681,330.908 555,338.5C 540.663,331.208 526.497,323.374 512.5,315C 511.177,314.184 510.511,313.017 510.5,311.5C 524.17,303.495 537.836,295.495 551.5,287.5C 552.59,286.391 552.59,285.391 551.5,284.5C 539.663,277.387 527.663,270.554 515.5,264C 510.198,262.137 509.531,259.47 513.5,256C 525.714,248.954 538.047,242.12 550.5,235.5C 552.311,234.178 554.311,233.678 556.5,234C 570.327,242.415 584.327,250.582 598.5,258.5 Z"/></g>
<g><path style="opacity:1" fill="#8dc65f" d="M 741.5,287.5 C 751.554,293.308 761.554,299.308 771.5,305.5C 771.047,306.458 770.381,307.292 769.5,308C 755.929,315.235 742.595,322.901 729.5,331C 728.207,331.49 726.873,331.657 725.5,331.5C 718.194,327.568 710.861,323.735 703.5,320C 700.481,317.642 697.481,315.309 694.5,313C 708.077,304.047 722.077,295.88 736.5,288.5C 738.117,287.962 739.784,287.629 741.5,287.5 Z"/></g>
<g><path style="opacity:0.989" fill="#629e47" d="M 46.5,312.5 C 60.3733,320.871 74.3733,329.038 88.5,337C 90.0249,338.009 91.6916,338.509 93.5,338.5C 94.7158,340.451 96.3825,341.951 98.5,343C 111.056,350.395 123.722,357.561 136.5,364.5C 137.9,365.1 138.9,366.1 139.5,367.5C 139.5,384.5 139.5,401.5 139.5,418.5C 138.448,418.649 137.448,418.483 136.5,418C 123.229,409.86 109.896,402.027 96.5,394.5C 95.5005,411.821 95.1672,429.154 95.5,446.5C 95.5,464.167 95.5,481.833 95.5,499.5C 95.1667,499.5 94.8333,499.5 94.5,499.5C 95.1602,463.151 94.4936,427.151 92.5,391.5C 77.0538,383.019 61.7204,374.353 46.5,365.5C 46.5,347.833 46.5,330.167 46.5,312.5 Z"/></g>
<g><path style="opacity:1" fill="#75b34f" d="M 143.5,314.5 C 158,322.803 172.667,330.97 187.5,339C 189.24,340.517 190.906,342.017 192.5,343.5C 190.13,343.264 188.13,342.264 186.5,340.5C 185.334,357.49 185.167,374.49 186,391.5C 186.717,392.044 187.217,392.711 187.5,393.5C 174.052,385.952 160.719,378.119 147.5,370C 144.978,368.659 142.311,367.826 139.5,367.5C 138.9,366.1 137.9,365.1 136.5,364.5C 137.5,364.5 138.5,364.5 139.5,364.5C 139.167,347.487 139.501,330.487 140.5,313.5C 141.417,314.127 142.417,314.461 143.5,314.5 Z"/></g>
<g><path style="opacity:1" fill="#97c965" d="M 229.5,312.5 C 230.167,312.5 230.833,312.5 231.5,312.5C 232.16,315.649 234.16,317.149 237.5,317C 241.656,320.246 245.989,323.246 250.5,326C 251.833,326.333 253.167,326.667 254.5,327C 259.249,330.756 264.249,334.089 269.5,337C 272.285,337.658 274.951,338.491 277.5,339.5C 277.414,340.496 277.748,341.329 278.5,342C 308.349,359.089 338.016,376.422 367.5,394C 357.669,399.414 348.002,405.081 338.5,411C 336.866,411.494 335.199,411.66 333.5,411.5C 286.211,384.699 239.211,357.699 192.5,330.5C 195.113,331.435 197.779,331.602 200.5,331C 208.778,326.139 217.111,321.472 225.5,317C 227.635,316.124 228.969,314.624 229.5,312.5 Z"/></g>
<g><path style="opacity:1" fill="#a5ce6e" d="M 322.5,313.5 C 323.5,313.5 324.5,313.5 325.5,313.5C 332.721,318.792 340.388,323.625 348.5,328C 353.987,329.208 358.654,331.875 362.5,336C 377.84,343.845 392.84,352.511 407.5,362C 410.97,364.413 414.636,365.246 418.5,364.5C 417.316,365.688 417.316,366.855 418.5,368C 433.552,376.523 448.552,385.023 463.5,393.5C 460.984,393.755 458.65,394.589 456.5,396C 443.823,403.335 431.156,410.668 418.5,418C 417.643,418.689 416.977,419.522 416.5,420.5C 418.269,422.557 420.269,424.39 422.5,426C 435.107,433.554 447.94,440.721 461,447.5C 474.606,439.28 488.439,431.447 502.5,424C 504.618,422.951 506.284,421.451 507.5,419.5C 508.873,419.657 510.207,419.49 511.5,419C 525.032,410.124 539.032,402.124 553.5,395C 554.684,393.855 554.684,392.688 553.5,391.5C 554.979,392.759 556.646,393.759 558.5,394.5C 566.73,400.115 575.396,404.948 584.5,409C 586.063,409.759 587.063,410.926 587.5,412.5C 552.044,433.273 516.377,453.773 480.5,474C 475.14,478.718 469.14,482.218 462.5,484.5C 449.545,477.688 436.545,470.855 423.5,464C 393.809,445.666 363.809,428.166 333.5,411.5C 335.199,411.66 336.866,411.494 338.5,411C 348.002,405.081 357.669,399.414 367.5,394C 338.016,376.422 308.349,359.089 278.5,342C 277.748,341.329 277.414,340.496 277.5,339.5C 292.522,330.798 307.522,322.131 322.5,313.5 Z"/></g>
<g><path style="opacity:1" fill="#95c863" d="M 506.5,311.5 C 507.833,311.5 509.167,311.5 510.5,311.5C 510.511,313.017 511.177,314.184 512.5,315C 526.497,323.374 540.663,331.208 555,338.5C 569.681,330.908 584.181,322.908 598.5,314.5C 599.386,313.675 599.719,312.675 599.5,311.5C 600.702,312.405 602.036,312.405 603.5,311.5C 602.438,312.575 602.438,313.575 603.5,314.5C 616.703,322.267 630.037,329.767 643.5,337C 645.063,337.759 646.063,338.926 646.5,340.5C 632.162,348.669 617.829,356.835 603.5,365C 602.748,365.671 602.414,366.504 602.5,367.5C 600.436,367.687 598.436,368.187 596.5,369C 583.234,376.607 570.234,384.607 557.5,393C 558.056,393.383 558.389,393.883 558.5,394.5C 556.646,393.759 554.979,392.759 553.5,391.5C 523.584,374.637 493.584,357.637 463.5,340.5C 464.568,338.26 466.234,336.426 468.5,335C 480.706,327.966 493.039,321.133 505.5,314.5C 506.386,313.675 506.719,312.675 506.5,311.5 Z"/></g>
<g><path style="opacity:1" fill="#2e532a" d="M 782.5,314.5 C 783.831,322.639 784.498,331.139 784.5,340C 784.333,348.5 784.167,357 784,365.5C 769.399,374.551 754.566,383.218 739.5,391.5C 738.334,374.51 738.167,357.51 739,340.5C 739.717,339.956 740.217,339.289 740.5,338.5C 752.802,331.012 765.136,323.512 777.5,316C 779.154,315.392 780.821,314.892 782.5,314.5 Z"/></g>
<g><path style="opacity:1" fill="#2e532a" d="M 875.5,313.5 C 876.827,331.005 876.827,348.671 875.5,366.5C 859.972,374.758 844.972,383.758 830.5,393.5C 830.167,393.5 829.833,393.5 829.5,393.5C 814.269,401.393 799.269,409.727 784.5,418.5C 784.333,401.163 784.5,383.83 785,366.5C 786.925,365.12 788.759,363.62 790.5,362C 804.076,353.728 817.743,345.895 831.5,338.5C 846.167,330.167 860.833,321.833 875.5,313.5 Z"/></g>
<g><path style="opacity:1" fill="#6ba749" d="M 192.5,343.5 C 194.606,344.783 196.94,345.616 199.5,346C 207.588,352.043 216.255,357.043 225.5,361C 228.666,363.084 231.666,365.25 234.5,367.5C 233.167,367.5 231.833,367.5 230.5,367.5C 230.333,384.17 230.5,400.837 231,417.5C 231.717,418.044 232.217,418.711 232.5,419.5C 217.475,410.793 202.475,402.126 187.5,393.5C 187.217,392.711 186.717,392.044 186,391.5C 185.167,374.49 185.334,357.49 186.5,340.5C 188.13,342.264 190.13,343.264 192.5,343.5 Z"/></g>
<g><path style="opacity:1" fill="#bad67d" d="M 460.5,340.5 C 461.5,340.5 462.5,340.5 463.5,340.5C 493.584,357.637 523.584,374.637 553.5,391.5C 554.684,392.688 554.684,393.855 553.5,395C 539.032,402.124 525.032,410.124 511.5,419C 510.207,419.49 508.873,419.657 507.5,419.5C 492.833,410.833 478.167,402.167 463.5,393.5C 448.552,385.023 433.552,376.523 418.5,368C 417.316,366.855 417.316,365.688 418.5,364.5C 432.453,356.521 446.453,348.521 460.5,340.5 Z"/></g>
<g><path style="opacity:1" fill="#afd275" d="M 646.5,340.5 C 648.482,340.995 650.482,341.495 652.5,342C 660.765,347.473 669.431,352.473 678.5,357C 679.252,357.671 679.586,358.504 679.5,359.5C 664.268,368.354 648.934,377.021 633.5,385.5C 623.17,379.505 612.836,373.505 602.5,367.5C 602.414,366.504 602.748,365.671 603.5,365C 617.829,356.835 632.162,348.669 646.5,340.5 Z"/></g>
<g><path style="opacity:1" fill="#3c6635" d="M 737.5,340.5 C 737.819,358.243 737.486,375.91 736.5,393.5C 735.833,393.5 735.5,393.833 735.5,394.5C 721.756,401.584 708.423,409.251 695.5,417.5C 694.833,417.5 694.167,417.5 693.5,417.5C 692.169,401.098 692.169,384.598 693.5,368C 692.906,367.536 692.239,367.369 691.5,367.5C 695.474,364.763 699.474,361.93 703.5,359C 714.696,352.569 726.029,346.402 737.5,340.5 Z"/></g>
<g><path style="opacity:0.999" fill="#583d2b" d="M 46.5,365.5 C 61.7204,374.353 77.0538,383.019 92.5,391.5C 93.493,427.094 93.8264,462.76 93.5,498.5C 78.2759,489.087 62.6092,480.42 46.5,472.5C 46.5,436.833 46.5,401.167 46.5,365.5 Z"/></g>
<g><path style="opacity:1" fill="#91bd64" d="M 139.5,367.5 C 142.311,367.826 144.978,368.659 147.5,370C 160.719,378.119 174.052,385.952 187.5,393.5C 202.475,402.126 217.475,410.793 232.5,419.5C 232.5,419.833 232.5,420.167 232.5,420.5C 232.5,438.167 232.5,455.833 232.5,473.5C 233.791,473.263 234.791,473.596 235.5,474.5C 234.5,474.5 233.5,474.5 232.5,474.5C 232.182,491.244 232.515,507.911 233.5,524.5C 232.833,524.5 232.167,524.5 231.5,524.5C 216.705,514.9 201.371,506.233 185.5,498.5C 185.167,497.833 184.833,497.167 184.5,496.5C 185.831,488.361 186.498,479.861 186.5,471C 186.167,462.5 185.833,454 185.5,445.5C 170.185,436.634 154.851,427.967 139.5,419.5C 139.5,419.167 139.5,418.833 139.5,418.5C 139.5,401.5 139.5,384.5 139.5,367.5 Z"/></g>
<g><path style="opacity:1" fill="#67a449" d="M 234.5,367.5 C 249.165,375.831 263.832,384.164 278.5,392.5C 279.14,401.622 279.474,410.789 279.5,420C 279.498,428.861 278.831,437.361 277.5,445.5C 262.729,436.723 247.729,428.39 232.5,420.5C 232.5,420.167 232.5,419.833 232.5,419.5C 232.217,418.711 231.717,418.044 231,417.5C 230.5,400.837 230.333,384.17 230.5,367.5C 231.833,367.5 233.167,367.5 234.5,367.5 Z"/></g>
<g><path style="opacity:1" fill="#8dc65f" d="M 602.5,367.5 C 612.836,373.505 623.17,379.505 633.5,385.5C 618.363,394.875 603.029,403.875 587.5,412.5C 587.063,410.926 586.063,409.759 584.5,409C 575.396,404.948 566.73,400.115 558.5,394.5C 558.389,393.883 558.056,393.383 557.5,393C 570.234,384.607 583.234,376.607 596.5,369C 598.436,368.187 600.436,367.687 602.5,367.5 Z"/></g>
<g><path style="opacity:1" fill="#365e30" d="M 827.5,288.5 C 828.833,305.167 830.167,321.833 831.5,338.5C 817.743,345.895 804.076,353.728 790.5,362C 788.759,363.62 786.925,365.12 785,366.5C 784.5,383.83 784.333,401.163 784.5,418.5C 784.83,436.674 784.497,454.674 783.5,472.5C 783.841,455.137 783.341,437.804 782,420.5C 767.522,428.985 753.022,437.319 738.5,445.5C 739.153,427.801 738.486,410.468 736.5,393.5C 737.486,375.91 737.819,358.243 737.5,340.5C 737.973,339.094 738.973,338.427 740.5,338.5C 740.217,339.289 739.717,339.956 739,340.5C 738.167,357.51 738.334,374.51 739.5,391.5C 754.566,383.218 769.399,374.551 784,365.5C 784.167,357 784.333,348.5 784.5,340C 784.498,331.139 783.831,322.639 782.5,314.5C 797.232,305.468 812.232,296.801 827.5,288.5 Z"/></g>
<g><path style="opacity:0.99" fill="#3b6534" d="M 877.5,259.5 C 877.5,330.167 877.5,400.833 877.5,471.5C 876.503,454.675 876.17,437.675 876.5,420.5C 861.554,428.396 846.72,436.729 832,445.5C 831.832,427.995 831.332,410.662 830.5,393.5C 844.972,383.758 859.972,374.758 875.5,366.5C 876.827,348.671 876.827,331.005 875.5,313.5C 876.486,295.91 876.819,278.243 876.5,260.5C 876.5,259.833 876.833,259.5 877.5,259.5 Z"/></g>
<g><path style="opacity:1" fill="#335b2e" d="M 691.5,367.5 C 692.239,367.369 692.906,367.536 693.5,368C 692.169,384.598 692.169,401.098 693.5,417.5C 692.833,418.5 692.167,419.5 691.5,420.5C 678.109,426.363 665.442,433.53 653.5,442C 644.105,445.726 635.439,450.726 627.5,457C 623.276,459.279 618.943,461.279 614.5,463C 610.818,467.341 606.151,469.841 600.5,470.5C 600.181,453.09 600.515,435.756 601.5,418.5C 631.162,400.74 661.162,383.74 691.5,367.5 Z"/></g>
<g><path style="opacity:1" fill="#8dc65f" d="M 463.5,393.5 C 478.167,402.167 492.833,410.833 507.5,419.5C 506.284,421.451 504.618,422.951 502.5,424C 488.439,431.447 474.606,439.28 461,447.5C 447.94,440.721 435.107,433.554 422.5,426C 420.269,424.39 418.269,422.557 416.5,420.5C 416.977,419.522 417.643,418.689 418.5,418C 431.156,410.668 443.823,403.335 456.5,396C 458.65,394.589 460.984,393.755 463.5,393.5 Z"/></g>
<g><path style="opacity:1" fill="#2f3622" d="M 735.5,394.5 C 735.5,393.833 735.833,393.5 736.5,393.5C 738.486,410.468 739.153,427.801 738.5,445.5C 738.5,463.5 738.5,481.5 738.5,499.5C 738.165,464.321 737.165,429.321 735.5,394.5 Z"/></g>
<g><path style="opacity:1" fill="#74b24e" d="M 139.5,418.5 C 139.5,418.833 139.5,419.167 139.5,419.5C 139.5,436.5 139.5,453.5 139.5,470.5C 124.743,462.459 110.076,454.459 95.5,446.5C 95.1672,429.154 95.5005,411.821 96.5,394.5C 109.896,402.027 123.229,409.86 136.5,418C 137.448,418.483 138.448,418.649 139.5,418.5 Z"/></g>
<g><path style="opacity:1" fill="#2c221b" d="M 829.5,393.5 C 829.5,428.833 829.5,464.167 829.5,499.5C 796.682,517.429 764.349,536.095 732.5,555.5C 719.48,562.866 706.48,570.199 693.5,577.5C 693.333,524.832 693.5,472.166 694,419.5C 694.717,418.956 695.217,418.289 695.5,417.5C 708.423,409.251 721.756,401.584 735.5,394.5C 737.165,429.321 738.165,464.321 738.5,499.5C 753.658,490.755 768.658,481.755 783.5,472.5C 784.497,454.674 784.83,436.674 784.5,418.5C 799.269,409.727 814.269,401.393 829.5,393.5 Z"/></g>
<g><path style="opacity:1" fill="#323624" d="M 693.5,417.5 C 694.167,417.5 694.833,417.5 695.5,417.5C 695.217,418.289 694.717,418.956 694,419.5C 693.5,472.166 693.333,524.832 693.5,577.5C 693.158,578.338 692.492,578.672 691.5,578.5C 691.5,543.5 691.5,508.5 691.5,473.5C 691.5,455.833 691.5,438.167 691.5,420.5C 692.167,419.5 692.833,418.5 693.5,417.5 Z"/></g>
<g><path style="opacity:1" fill="#80bd5a" d="M 139.5,419.5 C 154.851,427.967 170.185,436.634 185.5,445.5C 185.833,454 186.167,462.5 186.5,471C 186.498,479.861 185.831,488.361 184.5,496.5C 172.21,490.355 160.21,483.688 148.5,476.5C 148.027,475.094 147.027,474.427 145.5,474.5C 143.596,474.262 142.262,473.262 141.5,471.5C 141.158,470.662 140.492,470.328 139.5,470.5C 139.5,453.5 139.5,436.5 139.5,419.5 Z"/></g>
<g><path style="opacity:1" fill="#75b34f" d="M 232.5,420.5 C 247.729,428.39 262.729,436.723 277.5,445.5C 277.5,463.167 277.5,480.833 277.5,498.5C 263.46,490.483 249.46,482.483 235.5,474.5C 234.791,473.596 233.791,473.263 232.5,473.5C 232.5,455.833 232.5,438.167 232.5,420.5 Z"/></g>
<g><path style="opacity:1" fill="#3c6635" d="M 601.5,418.5 C 600.515,435.756 600.181,453.09 600.5,470.5C 606.151,469.841 610.818,467.341 614.5,463C 618.943,461.279 623.276,459.279 627.5,457C 635.439,450.726 644.105,445.726 653.5,442C 665.442,433.53 678.109,426.363 691.5,420.5C 691.5,438.167 691.5,455.833 691.5,473.5C 675.609,481.114 660.276,489.781 645.5,499.5C 630.005,507.43 615.005,516.097 600.5,525.5C 584.874,533.646 569.541,542.313 554.5,551.5C 553.681,534.24 553.181,516.907 553,499.5C 537.072,508.435 521.405,517.769 506,527.5C 505.5,544.83 505.333,562.163 505.5,579.5C 505.17,595.009 505.504,610.342 506.5,625.5C 506.5,628.167 506.5,630.833 506.5,633.5C 506.5,633.833 506.5,634.167 506.5,634.5C 505.209,634.263 504.209,634.596 503.5,635.5C 490.204,642.148 476.87,648.815 463.5,655.5C 462.833,638.833 462.167,622.167 461.5,605.5C 461.5,605.167 461.5,604.833 461.5,604.5C 462.498,569.337 462.832,534.004 462.5,498.5C 508.992,472.088 555.325,445.421 601.5,418.5 Z"/></g>
<g><path style="opacity:0.99" fill="#32592d" d="M 830.5,393.5 C 831.332,410.662 831.832,427.995 832,445.5C 846.72,436.729 861.554,428.396 876.5,420.5C 876.17,437.675 876.503,454.675 877.5,471.5C 877.5,471.833 877.5,472.167 877.5,472.5C 862.714,479.725 848.381,487.725 834.5,496.5C 833.417,496.539 832.417,496.873 831.5,497.5C 830.5,462.84 830.167,428.173 830.5,393.5 Z"/></g>
<g><path style="opacity:1" fill="#629f48" d="M 326.5,420.5 C 341.577,429.177 356.577,437.844 371.5,446.5C 370.503,463.659 370.17,480.992 370.5,498.5C 360.866,493.348 351.199,488.182 341.5,483C 335.947,479.301 330.447,475.468 325,471.5C 324.833,463 324.667,454.5 324.5,446C 324.502,437.139 325.169,428.639 326.5,420.5 Z"/></g>
<g><path style="opacity:1" fill="#396231" d="M 783.5,472.5 C 768.658,481.755 753.658,490.755 738.5,499.5C 738.5,481.5 738.5,463.5 738.5,445.5C 753.022,437.319 767.522,428.985 782,420.5C 783.341,437.804 783.841,455.137 783.5,472.5 Z"/></g>
<g><path style="opacity:1" fill="#678340" d="M 92.5,391.5 C 94.4936,427.151 95.1602,463.151 94.5,499.5C 94.1667,499.5 93.8333,499.5 93.5,499.5C 93.5,499.167 93.5,498.833 93.5,498.5C 93.8264,462.76 93.493,427.094 92.5,391.5 Z"/></g>
<g><path style="opacity:1" fill="#303a23" d="M 829.5,393.5 C 829.833,393.5 830.167,393.5 830.5,393.5C 830.167,428.173 830.5,462.84 831.5,497.5C 832.417,496.873 833.417,496.539 834.5,496.5C 833.232,498.047 831.565,499.047 829.5,499.5C 829.5,464.167 829.5,428.833 829.5,393.5 Z"/></g>
<g><path style="opacity:1" fill="#6da949" d="M 95.5,446.5 C 110.076,454.459 124.743,462.459 139.5,470.5C 140.492,470.328 141.158,470.662 141.5,471.5C 140.883,471.611 140.383,471.944 140,472.5C 139.667,490.167 139.333,507.833 139,525.5C 125.442,517.301 111.609,509.468 97.5,502C 96.6195,501.292 95.9528,500.458 95.5,499.5C 95.5,481.833 95.5,464.167 95.5,446.5 Z"/></g>
<g><path style="opacity:1" fill="#629e47" d="M 324.5,525.5 C 309.436,517.641 294.77,509.308 280.5,500.5C 280.158,499.662 279.492,499.328 278.5,499.5C 278.5,481.833 278.5,464.167 278.5,446.5C 293.472,454.743 308.305,463.409 323,472.5C 323.18,490.24 323.68,507.907 324.5,525.5 Z"/></g>
<g><path style="opacity:1" fill="#569346" d="M 371.5,446.5 C 386.056,455.91 401.056,464.577 416.5,472.5C 416.5,489.833 416.5,507.167 416.5,524.5C 400.982,516.155 385.649,507.488 370.5,498.5C 370.17,480.992 370.503,463.659 371.5,446.5 Z"/></g>
<g><path style="opacity:0.978" fill="#77543c" d="M 46.5,472.5 C 62.6092,480.42 78.2759,489.087 93.5,498.5C 93.5,498.833 93.5,499.167 93.5,499.5C 93.6666,516.837 93.4999,534.17 93,551.5C 77.7286,542.314 62.2286,533.647 46.5,525.5C 46.5,507.833 46.5,490.167 46.5,472.5 Z"/></g>
<g><path style="opacity:1" fill="#583d2b" d="M 141.5,471.5 C 142.262,473.262 143.596,474.262 145.5,474.5C 145.973,475.906 146.973,476.573 148.5,476.5C 160.21,483.688 172.21,490.355 184.5,496.5C 184.833,497.167 185.167,497.833 185.5,498.5C 185.167,516.512 185.5,534.512 186.5,552.5C 200.512,560.505 214.512,568.505 228.5,576.5C 229.287,578.104 230.62,578.771 232.5,578.5C 231.847,560.468 232.514,542.802 234.5,525.5C 248.221,533.587 261.888,541.587 275.5,549.5C 276.209,550.404 277.209,550.737 278.5,550.5C 277.848,533.466 278.515,516.8 280.5,500.5C 294.77,509.308 309.436,517.641 324.5,525.5C 324.5,542.5 324.5,559.5 324.5,576.5C 324.167,576.5 323.833,576.5 323.5,576.5C 308.551,568.691 293.884,560.358 279.5,551.5C 278.833,569.329 278.167,586.995 277.5,604.5C 264.894,597.862 252.561,590.695 240.5,583C 237.904,581.864 235.237,581.031 232.5,580.5C 232.5,597.5 232.5,614.5 232.5,631.5C 201.354,614.919 170.688,597.252 140.5,578.5C 139.833,595.995 139.167,613.329 138.5,630.5C 108.46,613.955 78.793,596.789 49.5,579C 48.552,578.517 47.552,578.351 46.5,578.5C 46.5,560.833 46.5,543.167 46.5,525.5C 62.2286,533.647 77.7286,542.314 93,551.5C 93.4999,534.17 93.6666,516.837 93.5,499.5C 93.8333,499.5 94.1667,499.5 94.5,499.5C 94.8333,499.5 95.1667,499.5 95.5,499.5C 95.9528,500.458 96.6195,501.292 97.5,502C 111.609,509.468 125.442,517.301 139,525.5C 139.333,507.833 139.667,490.167 140,472.5C 140.383,471.944 140.883,471.611 141.5,471.5 Z"/></g>
<g><path style="opacity:1" fill="#6ca849" d="M 278.5,392.5 C 295.118,400.913 311.118,410.246 326.5,420.5C 325.169,428.639 324.502,437.139 324.5,446C 324.667,454.5 324.833,463 325,471.5C 330.447,475.468 335.947,479.301 341.5,483C 351.199,488.182 360.866,493.348 370.5,498.5C 371.153,516.199 370.486,533.532 368.5,550.5C 353.853,542.198 339.186,533.865 324.5,525.5C 323.68,507.907 323.18,490.24 323,472.5C 308.305,463.409 293.472,454.743 278.5,446.5C 278.5,464.167 278.5,481.833 278.5,499.5C 278.167,499.5 277.833,499.5 277.5,499.5C 277.5,499.167 277.5,498.833 277.5,498.5C 277.5,480.833 277.5,463.167 277.5,445.5C 278.831,437.361 279.498,428.861 279.5,420C 279.474,410.789 279.14,401.622 278.5,392.5 Z"/></g>
<g><path style="opacity:0.995" fill="#2c221b" d="M 877.5,472.5 C 877.5,507.833 877.5,543.167 877.5,578.5C 846.048,595.392 815.048,613.059 784.5,631.5C 769.073,639.421 754.073,648.088 739.5,657.5C 738.5,639.846 738.167,622.179 738.5,604.5C 768.781,587.389 798.948,570.056 829,552.5C 829.5,534.836 829.667,517.17 829.5,499.5C 831.565,499.047 833.232,498.047 834.5,496.5C 848.381,487.725 862.714,479.725 877.5,472.5 Z"/></g>
<g><path style="opacity:1" fill="#9ac56d" d="M 235.5,474.5 C 249.46,482.483 263.46,490.483 277.5,498.5C 277.5,498.833 277.5,499.167 277.5,499.5C 278.152,516.534 277.485,533.2 275.5,549.5C 261.888,541.587 248.221,533.587 234.5,525.5C 234.5,524.833 234.167,524.5 233.5,524.5C 232.515,507.911 232.182,491.244 232.5,474.5C 233.5,474.5 234.5,474.5 235.5,474.5 Z"/></g>
<g><path style="opacity:1" fill="#44653b" d="M 691.5,473.5 C 691.5,508.5 691.5,543.5 691.5,578.5C 690.5,578.833 689.833,579.5 689.5,580.5C 675.9,587.636 662.567,595.302 649.5,603.5C 648.609,604.11 647.609,604.443 646.5,604.5C 646.83,586.992 646.497,569.659 645.5,552.5C 645.5,534.833 645.5,517.167 645.5,499.5C 660.276,489.781 675.609,481.114 691.5,473.5 Z"/></g>
<g><path style="opacity:1" fill="#687640" d="M 145.5,474.5 C 147.027,474.427 148.027,475.094 148.5,476.5C 146.973,476.573 145.973,475.906 145.5,474.5 Z"/></g>
<g><path style="opacity:1" fill="#6da949" d="M 416.5,472.5 C 426.638,477.736 436.638,483.236 446.5,489C 450.51,492.203 454.844,494.703 459.5,496.5C 459.833,497.5 460.5,498.167 461.5,498.5C 461.5,533.167 461.5,567.833 461.5,602.5C 460.167,602.5 458.833,602.5 457.5,602.5C 443.836,595.337 430.502,587.67 417.5,579.5C 417.5,578.833 417.167,578.5 416.5,578.5C 416.5,560.5 416.5,542.5 416.5,524.5C 416.5,507.167 416.5,489.833 416.5,472.5 Z"/></g>
<g><path style="opacity:1" fill="#6da749" d="M 185.5,498.5 C 201.371,506.233 216.705,514.9 231.5,524.5C 231.5,541.833 231.5,559.167 231.5,576.5C 230.5,576.5 229.5,576.5 228.5,576.5C 214.512,568.505 200.512,560.505 186.5,552.5C 185.5,534.512 185.167,516.512 185.5,498.5 Z"/></g>
<g><path style="opacity:1" fill="#67a448" d="M 370.5,498.5 C 385.649,507.488 400.982,516.155 416.5,524.5C 416.5,542.5 416.5,560.5 416.5,578.5C 416.167,578.5 415.833,578.5 415.5,578.5C 399.854,569.199 384.187,559.865 368.5,550.5C 370.486,533.532 371.153,516.199 370.5,498.5 Z"/></g>
<g><path style="opacity:1" fill="#3b2f26" d="M 829.5,499.5 C 829.667,517.17 829.5,534.836 829,552.5C 798.948,570.056 768.781,587.389 738.5,604.5C 738.833,587.487 738.499,570.487 737.5,553.5C 735.925,554.456 734.258,555.123 732.5,555.5C 764.349,536.095 796.682,517.429 829.5,499.5 Z"/></g>
<g><path style="opacity:1" fill="#7d8b50" d="M 277.5,499.5 C 277.833,499.5 278.167,499.5 278.5,499.5C 279.492,499.328 280.158,499.662 280.5,500.5C 278.515,516.8 277.848,533.466 278.5,550.5C 277.209,550.737 276.209,550.404 275.5,549.5C 277.485,533.2 278.152,516.534 277.5,499.5 Z"/></g>
<g><path style="opacity:1" fill="#5a8e42" d="M 461.5,498.5 C 461.833,498.5 462.167,498.5 462.5,498.5C 462.832,534.004 462.498,569.337 461.5,604.5C 459.847,604.34 458.514,603.674 457.5,602.5C 458.833,602.5 460.167,602.5 461.5,602.5C 461.5,567.833 461.5,533.167 461.5,498.5 Z"/></g>
<g><path style="opacity:1" fill="#335a2e" d="M 645.5,499.5 C 645.5,517.167 645.5,534.833 645.5,552.5C 644.833,553.167 644.167,553.833 643.5,554.5C 629.276,562.777 614.943,570.777 600.5,578.5C 600.5,560.833 600.5,543.167 600.5,525.5C 615.005,516.097 630.005,507.43 645.5,499.5 Z"/></g>
<g><path style="opacity:1" fill="#386030" d="M 554.5,551.5 C 553.833,551.5 553.5,551.833 553.5,552.5C 552.508,552.328 551.842,552.662 551.5,553.5C 550.833,553.5 550.5,553.833 550.5,554.5C 536.238,562.108 522.238,570.108 508.5,578.5C 507.391,578.557 506.391,578.89 505.5,579.5C 505.333,562.163 505.5,544.83 506,527.5C 521.405,517.769 537.072,508.435 553,499.5C 553.181,516.907 553.681,534.24 554.5,551.5 Z"/></g>
<g><path style="opacity:1" fill="#688741" d="M 231.5,524.5 C 232.167,524.5 232.833,524.5 233.5,524.5C 234.167,524.5 234.5,524.833 234.5,525.5C 232.514,542.802 231.847,560.468 232.5,578.5C 230.62,578.771 229.287,578.104 228.5,576.5C 229.5,576.5 230.5,576.5 231.5,576.5C 231.5,559.167 231.5,541.833 231.5,524.5 Z"/></g>
<g><path style="opacity:1" fill="#629e47" d="M 324.5,525.5 C 339.186,533.865 353.853,542.198 368.5,550.5C 384.187,559.865 399.854,569.199 415.5,578.5C 415.5,594.833 415.5,611.167 415.5,627.5C 414.5,627.5 413.5,627.5 412.5,627.5C 383.094,610.469 353.761,593.469 324.5,576.5C 324.5,559.5 324.5,542.5 324.5,525.5 Z"/></g>
<g><path style="opacity:1" fill="#4a6d44" d="M 600.5,525.5 C 600.5,543.167 600.5,560.833 600.5,578.5C 585.833,587.5 571.167,596.5 556.5,605.5C 555.833,605.5 555.167,605.5 554.5,605.5C 554.83,587.659 554.497,569.992 553.5,552.5C 553.5,551.833 553.833,551.5 554.5,551.5C 569.541,542.313 584.874,533.646 600.5,525.5 Z"/></g>
<g><path style="opacity:0.998" fill="#78553d" d="M 323.5,576.5 C 323.5,594.833 323.5,613.167 323.5,631.5C 325.38,631.229 326.713,631.896 327.5,633.5C 326.417,633.461 325.417,633.127 324.5,632.5C 323.334,649.824 323.167,667.157 324,684.5C 338.705,693.679 353.872,702.012 369.5,709.5C 369.5,692.167 369.5,674.833 369.5,657.5C 370.332,675.662 370.832,693.995 371,712.5C 385.412,720.288 399.578,728.454 413.5,737C 414.448,737.483 415.448,737.649 416.5,737.5C 416.5,701.833 416.5,666.167 416.5,630.5C 424.767,635.305 433.1,640.138 441.5,645C 448.279,648.559 454.946,652.392 461.5,656.5C 461.5,692.167 461.5,727.833 461.5,763.5C 447.824,756.668 434.491,749.168 421.5,741C 419.975,739.991 418.308,739.491 416.5,739.5C 416.5,756.833 416.5,774.167 416.5,791.5C 416.667,809.17 416.5,826.836 416,844.5C 400.798,836.464 385.964,827.797 371.5,818.5C 370.182,836.231 370.182,853.898 371.5,871.5C 370.503,888.659 370.17,905.992 370.5,923.5C 349.143,911.652 328.143,899.152 307.5,886C 281.163,871.799 255.496,856.632 230.5,840.5C 232.485,824.868 233.151,808.868 232.5,792.5C 236.266,793.769 239.933,795.269 243.5,797C 254.181,804.834 265.514,811.334 277.5,816.5C 278.21,781.332 278.21,746.332 277.5,711.5C 276.5,711.167 275.833,710.5 275.5,709.5C 276.117,709.389 276.617,709.056 277,708.5C 277.818,691.426 277.651,674.426 276.5,657.5C 277.831,649.193 278.498,640.527 278.5,631.5C 278.487,622.425 278.154,613.425 277.5,604.5C 278.167,586.995 278.833,569.329 279.5,551.5C 293.884,560.358 308.551,568.691 323.5,576.5 Z"/></g>
<g><path style="opacity:1" fill="#405436" d="M 551.5,553.5 C 551.842,552.662 552.508,552.328 553.5,552.5C 554.497,569.992 554.83,587.659 554.5,605.5C 554.162,587.976 553.162,570.643 551.5,553.5 Z"/></g>
<g><path style="opacity:1" fill="#4a3c31" d="M 738.5,604.5 C 737.833,622.671 737.167,641.004 736.5,659.5C 721.8,667.515 707.133,675.515 692.5,683.5C 692.832,648.996 692.498,614.663 691.5,580.5C 690.833,580.5 690.167,580.5 689.5,580.5C 689.833,579.5 690.5,578.833 691.5,578.5C 692.492,578.672 693.158,578.338 693.5,577.5C 706.48,570.199 719.48,562.866 732.5,555.5C 734.258,555.123 735.925,554.456 737.5,553.5C 738.499,570.487 738.833,587.487 738.5,604.5 Z"/></g>
<g><path style="opacity:1" fill="#2c221b" d="M 550.5,554.5 C 552.486,571.468 553.153,588.801 552.5,606.5C 537.436,615.865 522.103,624.865 506.5,633.5C 506.5,630.833 506.5,628.167 506.5,625.5C 506.333,610.496 506.5,595.496 507,580.5C 507.717,579.956 508.217,579.289 508.5,578.5C 522.238,570.108 536.238,562.108 550.5,554.5 Z"/></g>
<g><path style="opacity:1" fill="#353827" d="M 550.5,554.5 C 550.5,553.833 550.833,553.5 551.5,553.5C 553.162,570.643 554.162,587.976 554.5,605.5C 555.167,605.5 555.833,605.5 556.5,605.5C 556.158,606.338 555.492,606.672 554.5,606.5C 553.833,606.5 553.167,606.5 552.5,606.5C 553.153,588.801 552.486,571.468 550.5,554.5 Z"/></g>
<g><path style="opacity:1" fill="#363f28" d="M 645.5,552.5 C 646.497,569.659 646.83,586.992 646.5,604.5C 646.167,604.5 645.833,604.5 645.5,604.5C 646.152,587.466 645.485,570.8 643.5,554.5C 644.167,553.833 644.833,553.167 645.5,552.5 Z"/></g>
<g><path style="opacity:1" fill="#2c221b" d="M 643.5,554.5 C 645.485,570.8 646.152,587.466 645.5,604.5C 645.167,605.167 644.833,605.833 644.5,606.5C 629.92,613.573 615.92,621.573 602.5,630.5C 586.311,639.123 570.311,648.123 554.5,657.5C 554.5,640.5 554.5,623.5 554.5,606.5C 555.492,606.672 556.158,606.338 556.5,605.5C 571.167,596.5 585.833,587.5 600.5,578.5C 614.943,570.777 629.276,562.777 643.5,554.5 Z"/></g>
<g><path style="opacity:1" fill="#583d2b" d="M 323.5,576.5 C 323.833,576.5 324.167,576.5 324.5,576.5C 353.761,593.469 383.094,610.469 412.5,627.5C 413.568,628.434 414.901,628.768 416.5,628.5C 416.17,611.991 416.504,595.658 417.5,579.5C 430.502,587.67 443.836,595.337 457.5,602.5C 458.514,603.674 459.847,604.34 461.5,604.5C 461.5,604.833 461.5,605.167 461.5,605.5C 461.5,622.5 461.5,639.5 461.5,656.5C 454.946,652.392 448.279,648.559 441.5,645C 433.1,640.138 424.767,635.305 416.5,630.5C 416.5,666.167 416.5,701.833 416.5,737.5C 415.448,737.649 414.448,737.483 413.5,737C 399.578,728.454 385.412,720.288 371,712.5C 370.832,693.995 370.332,675.662 369.5,657.5C 355.532,649.514 341.532,641.514 327.5,633.5C 326.713,631.896 325.38,631.229 323.5,631.5C 323.5,613.167 323.5,594.833 323.5,576.5 Z"/></g>
<g><path style="opacity:0.989" fill="#b6835e" d="M 46.5,578.5 C 47.552,578.351 48.552,578.517 49.5,579C 78.793,596.789 108.46,613.955 138.5,630.5C 139.486,648.423 139.819,666.423 139.5,684.5C 123.595,675.932 107.929,666.932 92.5,657.5C 77.4431,648.466 62.1098,639.799 46.5,631.5C 46.5,613.833 46.5,596.167 46.5,578.5 Z"/></g>
<g><path style="opacity:1" fill="#78553d" d="M 232.5,631.5 C 232.5,649.167 232.5,666.833 232.5,684.5C 217.212,676.275 202.045,667.942 187,659.5C 186.5,677.164 186.333,694.83 186.5,712.5C 186.83,729.675 186.497,746.675 185.5,763.5C 185.833,745.821 185.5,728.154 184.5,710.5C 169.736,702.633 155.236,694.3 141,685.5C 140.5,702.83 140.333,720.163 140.5,737.5C 139.503,720.008 139.17,702.341 139.5,684.5C 139.819,666.423 139.486,648.423 138.5,630.5C 139.167,613.329 139.833,595.995 140.5,578.5C 170.688,597.252 201.354,614.919 232.5,631.5 Z"/></g>
<g><path style="opacity:1" fill="#5f813f" d="M 415.5,578.5 C 415.833,578.5 416.167,578.5 416.5,578.5C 417.167,578.5 417.5,578.833 417.5,579.5C 416.504,595.658 416.17,611.991 416.5,628.5C 414.901,628.768 413.568,628.434 412.5,627.5C 413.5,627.5 414.5,627.5 415.5,627.5C 415.5,611.167 415.5,594.833 415.5,578.5 Z"/></g>
<g><path style="opacity:1" fill="#324026" d="M 508.5,578.5 C 508.217,579.289 507.717,579.956 507,580.5C 506.5,595.496 506.333,610.496 506.5,625.5C 505.504,610.342 505.17,595.009 505.5,579.5C 506.391,578.89 507.391,578.557 508.5,578.5 Z"/></g>
<g><path style="opacity:1" fill="#2c221b" d="M 689.5,580.5 C 690.167,580.5 690.833,580.5 691.5,580.5C 691.667,597.503 691.5,614.503 691,631.5C 676.81,640.508 662.31,648.841 647.5,656.5C 646.892,638.665 647.559,620.998 649.5,603.5C 662.567,595.302 675.9,587.636 689.5,580.5 Z"/></g>
<g><path style="opacity:1" fill="#5b4a3d" d="M 877.5,578.5 C 877.5,613.833 877.5,649.167 877.5,684.5C 877.167,684.5 876.833,684.5 876.5,684.5C 876.5,667.167 876.5,649.833 876.5,632.5C 874.692,632.491 873.025,632.991 871.5,634C 856.917,642.232 842.584,650.732 828.5,659.5C 815.196,666.485 802.196,673.985 789.5,682C 787.975,683.009 786.308,683.509 784.5,683.5C 784.5,666.167 784.5,648.833 784.5,631.5C 815.048,613.059 846.048,595.392 877.5,578.5 Z"/></g>
<g><path style="opacity:1" fill="#6b6b6a" d="M 277.5,604.5 C 278.154,613.425 278.487,622.425 278.5,631.5C 278.498,640.527 277.831,649.193 276.5,657.5C 261.579,649.369 246.912,640.702 232.5,631.5C 232.5,614.5 232.5,597.5 232.5,580.5C 235.237,581.031 237.904,581.864 240.5,583C 252.561,590.695 264.894,597.862 277.5,604.5 Z"/></g>
<g><path style="opacity:1" fill="#4b4e2e" d="M 461.5,605.5 C 462.167,622.167 462.833,638.833 463.5,655.5C 463.5,656.167 463.167,656.5 462.5,656.5C 462.167,656.5 461.833,656.5 461.5,656.5C 461.5,639.5 461.5,622.5 461.5,605.5 Z"/></g>
<g><path style="opacity:1" fill="#5b4a3d" d="M 644.5,606.5 C 645.662,623.662 645.829,640.995 645,658.5C 630.603,667.777 615.77,676.111 600.5,683.5C 600.333,666.497 600.5,649.497 601,632.5C 601.717,631.956 602.217,631.289 602.5,630.5C 615.92,621.573 629.92,613.573 644.5,606.5 Z"/></g>
<g><path style="opacity:1" fill="#353d46" d="M 552.5,606.5 C 553.167,606.5 553.833,606.5 554.5,606.5C 554.5,623.5 554.5,640.5 554.5,657.5C 554.167,658.167 553.833,658.833 553.5,659.5C 538.896,666.275 524.896,674.108 511.5,683C 509.975,684.009 508.308,684.509 506.5,684.5C 506.5,667.833 506.5,651.167 506.5,634.5C 506.5,634.167 506.5,633.833 506.5,633.5C 522.103,624.865 537.436,615.865 552.5,606.5 Z"/></g>
<g><path style="opacity:0.978" fill="#78553d" d="M 46.5,631.5 C 62.1098,639.799 77.4431,648.466 92.5,657.5C 93.4729,675.12 93.8062,692.786 93.5,710.5C 77.6996,702.099 62.0329,693.433 46.5,684.5C 46.5,666.833 46.5,649.167 46.5,631.5 Z"/></g>
<g><path style="opacity:0.999" fill="#4a3c31" d="M 876.5,684.5 C 864.463,691.362 852.463,698.529 840.5,706C 836.907,707.781 833.24,709.281 829.5,710.5C 829.83,693.325 829.497,676.325 828.5,659.5C 842.584,650.732 856.917,642.232 871.5,634C 873.025,632.991 874.692,632.491 876.5,632.5C 876.5,649.833 876.5,667.167 876.5,684.5 Z"/></g>
<g><path style="opacity:1" fill="#946b4d" d="M 327.5,633.5 C 341.532,641.514 355.532,649.514 369.5,657.5C 369.5,674.833 369.5,692.167 369.5,709.5C 353.872,702.012 338.705,693.679 324,684.5C 323.167,667.157 323.334,649.824 324.5,632.5C 325.417,633.127 326.417,633.461 327.5,633.5 Z"/></g>
<g><path style="opacity:1" fill="#4a3c31" d="M 645.5,604.5 C 645.833,604.5 646.167,604.5 646.5,604.5C 646.5,639.833 646.5,675.167 646.5,710.5C 645.833,710.5 645.5,710.833 645.5,711.5C 615.607,729.098 585.44,746.431 555,763.5C 554.142,728.838 553.642,694.171 553.5,659.5C 553.833,658.833 554.167,658.167 554.5,657.5C 570.311,648.123 586.311,639.123 602.5,630.5C 602.217,631.289 601.717,631.956 601,632.5C 600.5,649.497 600.333,666.497 600.5,683.5C 615.77,676.111 630.603,667.777 645,658.5C 645.829,640.995 645.662,623.662 644.5,606.5C 644.833,605.833 645.167,605.167 645.5,604.5 Z"/></g>
<g><path style="opacity:0.999" fill="#3c3027" d="M 691.5,580.5 C 692.498,614.663 692.832,648.996 692.5,683.5C 707.133,675.515 721.8,667.515 736.5,659.5C 737.167,641.004 737.833,622.671 738.5,604.5C 738.167,622.179 738.5,639.846 739.5,657.5C 754.073,648.088 769.073,639.421 784.5,631.5C 784.5,648.833 784.5,666.167 784.5,683.5C 786.308,683.509 787.975,683.009 789.5,682C 802.196,673.985 815.196,666.485 828.5,659.5C 829.497,676.325 829.83,693.325 829.5,710.5C 833.24,709.281 836.907,707.781 840.5,706C 852.463,698.529 864.463,691.362 876.5,684.5C 876.833,684.5 877.167,684.5 877.5,684.5C 877.667,702.503 877.5,720.503 877,738.5C 855.226,751.303 833.392,763.969 811.5,776.5C 811.5,775.5 811.5,774.5 811.5,773.5C 818.181,771.653 824.014,768.32 829,763.5C 829.833,746.49 829.666,729.49 828.5,712.5C 813.628,720.538 799.128,729.205 785,738.5C 784.167,755.51 784.334,772.51 785.5,789.5C 786.995,788.295 788.328,788.295 789.5,789.5C 773.065,799.274 756.398,808.607 739.5,817.5C 738.667,782.669 738.167,747.669 738,712.5C 736.493,711.465 734.993,711.632 733.5,713C 720.104,721.695 706.437,729.861 692.5,737.5C 692.5,720.167 692.5,702.833 692.5,685.5C 690.692,685.491 689.025,685.991 687.5,687C 674.077,695.375 660.41,703.208 646.5,710.5C 646.5,675.167 646.5,639.833 646.5,604.5C 647.609,604.443 648.609,604.11 649.5,603.5C 647.559,620.998 646.892,638.665 647.5,656.5C 662.31,648.841 676.81,640.508 691,631.5C 691.5,614.503 691.667,597.503 691.5,580.5 Z"/></g>
<g><path style="opacity:1" fill="#583d2b" d="M 232.5,631.5 C 246.912,640.702 261.579,649.369 276.5,657.5C 277.651,674.426 277.818,691.426 277,708.5C 276.617,709.056 276.117,709.389 275.5,709.5C 260.583,702.092 246.249,693.758 232.5,684.5C 232.5,666.833 232.5,649.167 232.5,631.5 Z"/></g>
<g><path style="opacity:1" fill="#2c221b" d="M 503.5,635.5 C 504.831,643.472 505.498,651.806 505.5,660.5C 505.333,668.833 505.167,677.167 505,685.5C 504.283,686.044 503.783,686.711 503.5,687.5C 490.167,695.167 476.833,702.833 463.5,710.5C 462.503,692.674 462.17,674.674 462.5,656.5C 463.167,656.5 463.5,656.167 463.5,655.5C 476.87,648.815 490.204,642.148 503.5,635.5 Z"/></g>
<g><path style="opacity:1" fill="#b6835e" d="M 232.5,684.5 C 246.249,693.758 260.583,702.092 275.5,709.5C 275.833,710.5 276.5,711.167 277.5,711.5C 277.5,728.833 277.5,746.167 277.5,763.5C 268.074,758.953 258.741,754.12 249.5,749C 229.095,735.798 208.095,723.631 186.5,712.5C 186.333,694.83 186.5,677.164 187,659.5C 202.045,667.942 217.212,676.275 232.5,684.5 Z"/></g>
<g><path style="opacity:0.997" fill="#573d2b" d="M 46.5,684.5 C 62.0329,693.433 77.6996,702.099 93.5,710.5C 93.5,710.833 93.5,711.167 93.5,711.5C 93.5,727.5 93.5,743.5 93.5,759.5C 78.0906,750.412 62.5906,741.412 47,732.5C 46.5001,716.503 46.3334,700.503 46.5,684.5 Z"/></g>
<g><path style="opacity:1" fill="#583d2b" d="M 185.5,763.5 C 183.188,762.68 180.854,761.847 178.5,761C 167.958,753.895 156.958,747.561 145.5,742C 143.382,740.951 141.716,739.451 140.5,737.5C 140.333,720.163 140.5,702.83 141,685.5C 155.236,694.3 169.736,702.633 184.5,710.5C 185.5,728.154 185.833,745.821 185.5,763.5 Z"/></g>
<g><path style="opacity:1" fill="#424c58" d="M 692.5,737.5 C 678.17,744.973 664.17,753.14 650.5,762C 648.975,763.009 647.308,763.509 645.5,763.5C 645.5,746.167 645.5,728.833 645.5,711.5C 645.5,710.833 645.833,710.5 646.5,710.5C 660.41,703.208 674.077,695.375 687.5,687C 689.025,685.991 690.692,685.491 692.5,685.5C 692.5,702.833 692.5,720.167 692.5,737.5 Z"/></g>
<g><path style="opacity:1" fill="#4a3c31" d="M 506.5,738.5 C 506.5,738.833 506.5,739.167 506.5,739.5C 504.821,739.892 503.154,740.392 501.5,741C 489.003,748.75 476.336,756.25 463.5,763.5C 463.5,745.833 463.5,728.167 463.5,710.5C 476.833,702.833 490.167,695.167 503.5,687.5C 504.496,687.586 505.329,687.252 506,686.5C 506.5,703.83 506.667,721.163 506.5,738.5 Z"/></g>
<g><path style="opacity:0.998" fill="#946b4d" d="M 92.5,657.5 C 107.929,666.932 123.595,675.932 139.5,684.5C 139.17,702.341 139.503,720.008 140.5,737.5C 141.716,739.451 143.382,740.951 145.5,742C 156.958,747.561 167.958,753.895 178.5,761C 180.854,761.847 183.188,762.68 185.5,763.5C 186.497,746.675 186.83,729.675 186.5,712.5C 208.095,723.631 229.095,735.798 249.5,749C 258.741,754.12 268.074,758.953 277.5,763.5C 277.5,746.167 277.5,728.833 277.5,711.5C 278.21,746.332 278.21,781.332 277.5,816.5C 265.514,811.334 254.181,804.834 243.5,797C 239.933,795.269 236.266,793.769 232.5,792.5C 233.151,808.868 232.485,824.868 230.5,840.5C 222.698,836.432 215.032,832.098 207.5,827.5C 207.027,826.094 206.027,825.427 204.5,825.5C 182.599,812.724 160.933,799.724 139.5,786.5C 139.667,770.497 139.5,754.497 139,738.5C 124.353,728.668 109.186,719.668 93.5,711.5C 93.5,711.167 93.5,710.833 93.5,710.5C 93.8062,692.786 93.4729,675.12 92.5,657.5 Z"/></g>
<g><path style="opacity:1" fill="#2c221b" d="M 506.5,739.5 C 506.5,739.167 506.5,738.833 506.5,738.5C 521.512,729.675 536.679,721.008 552,712.5C 552.667,730.167 552.667,747.833 552,765.5C 538.71,772.646 525.71,780.313 513,788.5C 510.953,789.609 508.787,790.276 506.5,790.5C 506.5,773.5 506.5,756.5 506.5,739.5 Z"/></g>
<g><path style="opacity:1" fill="#2c221b" d="M 811.5,776.5 C 804.167,780.833 796.833,785.167 789.5,789.5C 788.328,788.295 786.995,788.295 785.5,789.5C 784.334,772.51 784.167,755.51 785,738.5C 799.128,729.205 813.628,720.538 828.5,712.5C 829.666,729.49 829.833,746.49 829,763.5C 824.014,768.32 818.181,771.653 811.5,773.5C 811.5,774.5 811.5,775.5 811.5,776.5 Z"/></g>
<g><path style="opacity:0.991" fill="#77543c" d="M 93.5,711.5 C 109.186,719.668 124.353,728.668 139,738.5C 139.5,754.497 139.667,770.497 139.5,786.5C 124.121,777.494 108.788,768.494 93.5,759.5C 93.5,743.5 93.5,727.5 93.5,711.5 Z"/></g>
<g><path style="opacity:0.999" fill="#3c3027" d="M 503.5,635.5 C 504.209,634.596 505.209,634.263 506.5,634.5C 506.5,651.167 506.5,667.833 506.5,684.5C 508.308,684.509 509.975,684.009 511.5,683C 524.896,674.108 538.896,666.275 553.5,659.5C 553.642,694.171 554.142,728.838 555,763.5C 585.44,746.431 615.607,729.098 645.5,711.5C 645.5,728.833 645.5,746.167 645.5,763.5C 645.167,764.167 644.833,764.833 644.5,765.5C 613.998,782.493 583.832,799.826 554,817.5C 553.5,834.83 553.333,852.163 553.5,869.5C 556.908,868.633 560.242,867.467 563.5,866C 574.292,859.027 585.292,852.527 596.5,846.5C 597.583,846.461 598.583,846.127 599.5,845.5C 600.666,862.824 600.833,880.157 600,897.5C 599.283,898.044 598.783,898.711 598.5,899.5C 567.833,917.167 537.167,934.833 506.5,952.5C 506.5,934.833 506.5,917.167 506.5,899.5C 504.436,899.687 502.436,900.187 500.5,901C 488.557,908.554 476.391,915.721 464,922.5C 463.5,905.17 463.333,887.837 463.5,870.5C 476.973,861.378 490.973,853.045 505.5,845.5C 506.5,827.846 506.833,810.179 506.5,792.5C 502.422,794.057 498.422,795.89 494.5,798C 484.583,804.544 474.416,810.71 464,816.5C 463.5,798.836 463.333,781.17 463.5,763.5C 476.336,756.25 489.003,748.75 501.5,741C 503.154,740.392 504.821,739.892 506.5,739.5C 506.5,756.5 506.5,773.5 506.5,790.5C 508.787,790.276 510.953,789.609 513,788.5C 525.71,780.313 538.71,772.646 552,765.5C 552.667,747.833 552.667,730.167 552,712.5C 536.679,721.008 521.512,729.675 506.5,738.5C 506.667,721.163 506.5,703.83 506,686.5C 505.329,687.252 504.496,687.586 503.5,687.5C 503.783,686.711 504.283,686.044 505,685.5C 505.167,677.167 505.333,668.833 505.5,660.5C 505.498,651.806 504.831,643.472 503.5,635.5 Z"/></g>
<g><path style="opacity:1" fill="#4b3c31" d="M 739.5,817.5 C 724.592,827.723 708.925,836.723 692.5,844.5C 692.464,827.08 692.464,809.413 692.5,791.5C 676.995,799.509 661.828,808.175 647,817.5C 646.167,834.843 646.334,852.176 647.5,869.5C 650.207,868.422 652.874,867.422 655.5,866.5C 650.414,868.889 645.747,872.056 641.5,876C 638.639,876.54 635.972,877.54 633.5,879C 621.947,886.119 610.281,892.952 598.5,899.5C 598.783,898.711 599.283,898.044 600,897.5C 600.833,880.157 600.666,862.824 599.5,845.5C 598.583,846.127 597.583,846.461 596.5,846.5C 612.221,836.798 628.221,827.465 644.5,818.5C 645.827,800.671 645.827,783.005 644.5,765.5C 644.833,764.833 645.167,764.167 645.5,763.5C 647.308,763.509 648.975,763.009 650.5,762C 664.17,753.14 678.17,744.973 692.5,737.5C 706.437,729.861 720.104,721.695 733.5,713C 734.993,711.632 736.493,711.465 738,712.5C 738.167,747.669 738.667,782.669 739.5,817.5 Z"/></g>
<g><path style="opacity:1" fill="#946b4d" d="M 323.5,738.5 C 324.873,738.343 326.207,738.51 327.5,739C 341.782,747.387 355.949,755.887 370,764.5C 370.833,781.843 370.666,799.176 369.5,816.5C 353.916,808.461 338.749,799.794 324,790.5C 323.5,773.17 323.333,755.837 323.5,738.5 Z"/></g>
<g><path style="opacity:1" fill="#b6835e" d="M 461.5,763.5 C 461.5,763.833 461.5,764.167 461.5,764.5C 461.5,781.833 461.5,799.167 461.5,816.5C 460.448,816.649 459.448,816.483 458.5,816C 444.262,808.055 430.262,799.888 416.5,791.5C 416.5,774.167 416.5,756.833 416.5,739.5C 418.308,739.491 419.975,739.991 421.5,741C 434.491,749.168 447.824,756.668 461.5,763.5 Z"/></g>
<g><path style="opacity:1" fill="#5b4a3d" d="M 644.5,765.5 C 645.827,783.005 645.827,800.671 644.5,818.5C 628.221,827.465 612.221,836.798 596.5,846.5C 585.292,852.527 574.292,859.027 563.5,866C 560.242,867.467 556.908,868.633 553.5,869.5C 553.333,852.163 553.5,834.83 554,817.5C 583.832,799.826 613.998,782.493 644.5,765.5 Z"/></g>
<g><path style="opacity:0.997" fill="#3c3027" d="M 692.5,844.5 C 691.284,846.451 689.618,847.951 687.5,849C 676.943,855.062 666.276,860.896 655.5,866.5C 652.874,867.422 650.207,868.422 647.5,869.5C 646.334,852.176 646.167,834.843 647,817.5C 661.828,808.175 676.995,799.509 692.5,791.5C 692.464,809.413 692.464,827.08 692.5,844.5 Z"/></g>
<g><path style="opacity:1" fill="#946b4d" d="M 461.5,764.5 C 462.498,799.663 462.832,834.996 462.5,870.5C 461.668,887.995 461.168,905.662 461,923.5C 446.156,915.266 431.323,906.933 416.5,898.5C 401.394,889.686 386.394,880.686 371.5,871.5C 370.182,853.898 370.182,836.231 371.5,818.5C 385.964,827.797 400.798,836.464 416,844.5C 416.5,826.836 416.667,809.17 416.5,791.5C 430.262,799.888 444.262,808.055 458.5,816C 459.448,816.483 460.448,816.649 461.5,816.5C 461.5,799.167 461.5,781.833 461.5,764.5 Z"/></g>
<g><path style="opacity:1" fill="#5b4a3c" d="M 461.5,656.5 C 461.833,656.5 462.167,656.5 462.5,656.5C 462.17,674.674 462.503,692.674 463.5,710.5C 463.5,728.167 463.5,745.833 463.5,763.5C 463.333,781.17 463.5,798.836 464,816.5C 474.416,810.71 484.583,804.544 494.5,798C 498.422,795.89 502.422,794.057 506.5,792.5C 506.833,810.179 506.5,827.846 505.5,845.5C 490.973,853.045 476.973,861.378 463.5,870.5C 463.167,870.5 462.833,870.5 462.5,870.5C 462.832,834.996 462.498,799.663 461.5,764.5C 461.5,764.167 461.5,763.833 461.5,763.5C 461.5,727.833 461.5,692.167 461.5,656.5 Z"/></g>
<g><path style="opacity:0.023" fill="#a5cf6e" d="M 204.5,825.5 C 206.027,825.427 207.027,826.094 207.5,827.5C 205.973,827.573 204.973,826.906 204.5,825.5 Z"/></g>
<g><path style="opacity:0.999" fill="#583d2b" d="M 371.5,871.5 C 386.394,880.686 401.394,889.686 416.5,898.5C 417.152,915.866 416.486,932.866 414.5,949.5C 409.834,947.687 405.5,945.187 401.5,942C 391.994,936.413 382.327,931.08 372.5,926C 371.619,925.292 370.953,924.458 370.5,923.5C 370.17,905.992 370.503,888.659 371.5,871.5 Z"/></g>
<g><path style="opacity:0.992" fill="#77543c" d="M 462.5,870.5 C 463.15,906.388 462.483,942.055 460.5,977.5C 446.219,968.396 431.552,959.896 416.5,952C 415.619,951.292 414.953,950.458 414.5,949.5C 416.486,932.866 417.152,915.866 416.5,898.5C 431.323,906.933 446.156,915.266 461,923.5C 461.168,905.662 461.668,887.995 462.5,870.5 Z"/></g>
<g><path style="opacity:1" fill="#4b3d31" d="M 462.5,870.5 C 462.833,870.5 463.167,870.5 463.5,870.5C 463.333,887.837 463.5,905.17 464,922.5C 476.391,915.721 488.557,908.554 500.5,901C 502.436,900.187 504.436,899.687 506.5,899.5C 506.5,917.167 506.5,934.833 506.5,952.5C 491.976,961.906 476.976,970.573 461.5,978.5C 460.893,978.376 460.56,978.043 460.5,977.5C 462.483,942.055 463.15,906.388 462.5,870.5 Z"/></g>
</svg>
