<svg id="Layer_1" data-name="Layer 1" xmlns="http://www.w3.org/2000/svg" viewBox="0 0 107.45 104.74">
    <defs>
        <style>.cls-1{fill:#1a171b;}</style>
    </defs>
    <title>Seven Pointed Star Extended</title>
    <path class="cls-1" d="M100.93,65.54C89,62,68.18,55.65,63.54,52.13c2.7-5.23,18.8-19.2,28-27.55C81.36,31.74,63.74,43.87,58.09,45.3c-2.41-5.37-3.61-26.52-4.37-39-.77,12.46-2,33.64-4.36,39-5.7-1.46-23.3-13.57-33.49-20.72,9.26,8.37,25.39,22.36,28,27.55C39.21,55.68,18.47,62,6.52,65.55c12.32-2,33.63-6.06,39.34-4.9-.16,5.87-8.41,26.16-13.11,37.69,6.1-10.89,16.52-30.16,21-33.9,4.5,3.79,14.93,23.09,21,34C70,86.84,61.73,66.48,61.59,60.65,67.36,59.49,88.64,63.52,100.93,65.54Z"/>
</svg>